<?xml version="1.0" standalone="no"?>
<!DOCTYPE svg PUBLIC "-//W3C//DTD SVG 20010904//EN"
 "http://www.w3.org/TR/2001/REC-SVG-20010904/DTD/svg10.dtd">
<svg version="1.0" xmlns="http://www.w3.org/2000/svg"
 width="700.000000pt" height="700.000000pt" viewBox="0 0 700.000000 700.000000"
 preserveAspectRatio="xMidYMid meet">
<metadata>
Created by potrace 1.11, written by Peter Selinger 2001-2013
</metadata>
<g transform="translate(0.000000,700.000000) scale(0.100000,-0.100000)"
fill="#000000" stroke="none">
<path d="M2551 6985 c-105 -23 -228 -88 -307 -162 -60 -56 -103 -120 -162
-243 -33 -69 -73 -139 -89 -156 -64 -71 -213 -136 -343 -149 -30 -4 -62 -8
-70 -10 -8 -2 -42 -7 -75 -10 -33 -4 -67 -8 -75 -10 -8 -3 -33 -7 -54 -11
-136 -21 -252 -83 -372 -199 -155 -150 -241 -294 -300 -505 -33 -120 -42 -349
-17 -470 8 -41 16 -104 18 -139 2 -56 -2 -86 -19 -168 -9 -41 -64 -147 -102
-196 -21 -26 -87 -87 -148 -136 -216 -170 -338 -352 -403 -600 -21 -79 -26
-121 -27 -236 -1 -168 6 -222 43 -334 83 -246 261 -450 498 -570 71 -35 193
-78 249 -87 22 -3 59 -10 84 -14 25 -5 159 -9 298 -9 233 0 256 2 303 21 61
26 130 99 149 159 16 53 21 390 7 459 -16 77 -64 138 -142 178 -49 25 -55 25
-265 27 -193 1 -219 3 -248 20 -38 23 -72 88 -67 127 5 40 43 98 74 110 17 7
201 12 551 13 404 1 534 4 565 15 151 49 256 159 290 302 8 35 13 124 14 235
0 153 -3 187 -21 245 -24 80 -75 138 -164 188 -135 76 -220 174 -273 312 -19
50 -24 114 -26 303 -1 175 0 193 19 228 36 68 108 91 175 57 68 -34 74 -57 76
-282 l1 -197 30 -57 c34 -67 84 -110 153 -134 73 -24 459 -22 546 4 209 63
360 220 409 427 21 91 23 1011 1 1111 -30 147 -87 257 -177 349 -53 54 -104
99 -113 99 -2 0 -25 13 -50 29 -106 67 -305 97 -444 66z"/>
<path d="M4145 6979 c-186 -48 -344 -177 -427 -349 -78 -159 -80 -175 -79
-730 0 -267 2 -501 5 -520 13 -76 19 -97 47 -158 59 -131 165 -235 296 -290
99 -42 156 -49 383 -47 195 1 219 3 260 22 69 31 127 96 149 164 7 21 13 118
14 230 2 212 6 228 63 266 36 23 113 22 147 -3 53 -38 61 -72 61 -264 0 -195
-5 -242 -29 -315 -46 -136 -127 -230 -267 -311 -85 -50 -130 -95 -162 -163
-19 -42 -21 -66 -23 -261 -2 -200 -1 -219 20 -281 47 -137 138 -224 282 -270
30 -10 170 -13 565 -14 558 -1 551 0 592 -49 39 -46 39 -126 0 -170 -41 -45
-66 -49 -287 -51 -206 -1 -211 -2 -263 -28 -62 -31 -95 -65 -125 -127 -20 -41
-21 -62 -23 -256 -1 -185 1 -218 18 -262 24 -64 82 -123 150 -151 51 -21 63
-22 333 -18 154 3 289 7 300 10 11 3 49 12 85 21 189 44 397 170 510 307 25
30 48 56 51 59 15 12 84 129 110 186 57 126 82 243 83 394 0 116 -7 182 -33
282 -61 238 -196 436 -406 595 -145 110 -216 211 -250 357 -14 58 -14 193 -1
246 24 94 28 316 7 420 -17 85 -65 228 -98 293 -102 201 -285 385 -452 453
-55 22 -175 48 -271 59 -25 3 -56 7 -70 10 -14 2 -50 7 -80 10 -83 10 -227 61
-282 101 -55 41 -93 92 -133 179 -14 33 -34 76 -43 95 -9 19 -33 58 -53 86
-149 204 -432 306 -674 243z"/>
<path d="M2908 4646 c-110 -37 -193 -123 -217 -226 -6 -25 -13 -139 -15 -255
-4 -166 -9 -225 -24 -280 -43 -155 -92 -245 -184 -337 -82 -81 -168 -122 -284
-133 -130 -12 -226 -82 -256 -190 -19 -66 -18 -1026 0 -1091 27 -94 119 -183
210 -203 26 -5 83 -12 128 -15 225 -16 413 -158 499 -380 37 -96 45 -159 43
-341 -3 -185 -8 -203 -66 -241 -33 -21 -104 -21 -137 0 -55 36 -60 55 -66 266
-4 135 -10 204 -19 225 -62 133 -163 199 -313 204 -67 2 -76 4 -172 21 -210
37 -375 189 -390 358 -12 138 -71 222 -180 257 -65 20 -387 21 -462 1 -131
-35 -256 -147 -298 -267 -25 -69 -27 -88 -31 -219 -6 -190 23 -330 103 -497
104 -220 304 -413 518 -502 143 -60 213 -73 400 -76 178 -3 207 -9 263 -51 39
-30 62 -73 98 -185 73 -227 229 -391 439 -458 79 -26 232 -36 305 -20 81 17
88 19 134 39 186 79 350 273 391 459 3 12 8 31 12 43 4 13 9 415 11 893 2 645
0 884 -8 925 -14 60 -43 112 -86 151 -78 69 -125 81 -334 82 -184 0 -220 9
-252 65 -35 59 -13 152 44 184 16 9 86 15 223 19 196 5 201 6 254 34 31 17 70
50 92 78 70 88 69 78 69 773 -1 599 -1 624 -21 682 -58 172 -248 266 -421 208z"/>
<path d="M3914 4659 c-89 -16 -193 -89 -231 -163 -45 -86 -44 -79 -44 -736 0
-344 3 -638 6 -653 23 -116 132 -216 251 -231 21 -3 109 -6 195 -6 174 -2 198
-9 232 -72 31 -58 18 -116 -38 -168 -26 -24 -29 -25 -213 -27 -198 -2 -241
-10 -305 -55 -52 -36 -86 -79 -108 -138 -20 -54 -21 -68 -20 -925 0 -527 4
-890 10 -920 43 -219 178 -402 366 -495 95 -47 142 -59 255 -66 244 -16 475
116 608 348 11 21 37 87 57 147 64 193 117 229 341 225 143 -2 231 11 348 50
360 121 633 461 684 851 11 82 6 276 -8 335 -40 166 -178 299 -340 330 -29 5
-128 10 -220 10 -198 0 -253 -13 -312 -72 -51 -51 -76 -105 -84 -179 -8 -78
-25 -127 -63 -183 -86 -125 -244 -199 -446 -212 -168 -10 -239 -35 -304 -109
-70 -80 -75 -100 -81 -320 -5 -190 -6 -202 -29 -233 -57 -80 -172 -72 -223 15
-15 25 -18 56 -18 194 0 183 3 222 27 294 79 244 276 405 518 422 150 10 185
23 255 93 94 94 91 71 88 691 -3 593 0 560 -72 632 -46 47 -113 75 -192 82
-37 4 -88 13 -113 22 -177 60 -331 270 -367 503 -3 19 -7 46 -9 59 -3 14 -5
108 -5 211 -1 170 -4 191 -24 243 -62 151 -214 235 -372 206z"/>
</g>
</svg>
