<?xml version="1.0" encoding="UTF-8"?>
<svg width="200px" height="200px" viewBox="0 0 200 200" version="1.1" xmlns="http://www.w3.org/2000/svg" xmlns:xlink="http://www.w3.org/1999/xlink">
    <title>bitclout</title>
    <g id="bitclout" stroke="none" stroke-width="1" fill="none" fill-rule="evenodd">
        <g id="camelcase_logo" transform="translate(2.000000, 82.000000)" fill-rule="nonzero">
            <path d="M42.5185185,30.7175378 L51.2445067,30.7175378 C57.6761618,30.7175378 61.7006477,28.9883322 61.7006477,23.5317279 C61.7006477,18.6899522 58.5036262,16.9991734 54.4415282,16.9223198 L54.4415282,16.0000768 C57.1872056,15.8079428 59.7448228,14.1940176 59.7448228,10.2744554 C59.7448228,4.93313138 56.021233,3.62662048 49.5519659,3.62662048 L42.5185185,3.62662048 L42.5185185,30.7175378 Z M45.602704,15.2699678 L45.602704,6.31649586 L49.6648019,6.31649586 C53.990184,6.31649586 56.6606373,6.5854834 56.6606373,10.7740036 C56.6606373,14.6167123 53.990184,15.2699678 49.6648019,15.2699678 L45.602704,15.2699678 Z M45.602704,28.0276624 L45.602704,17.9598431 L51.3573428,17.9598431 C55.8707849,17.9598431 58.6164622,19.0357933 58.6164622,22.9937528 C58.6164622,27.2591266 55.8707849,28.0276624 51.3573428,28.0276624 L45.602704,28.0276624 Z M70.8195368,8.58367654 C72.3240176,8.58367654 73.5276021,7.43087281 73.5276021,5.89380116 C73.5276021,4.43358309 72.3240176,3.24235257 70.8195368,3.24235257 C69.2774441,3.24235257 68.1114715,4.43358309 68.1114715,5.89380116 C68.1114715,7.43087281 69.2774441,8.58367654 70.8195368,8.58367654 Z M64.5759418,30.7175378 L78.0034323,30.7175378 L78.0034323,28.0276624 L72.7377498,28.0276624 L72.7377498,13.5407622 C72.7377498,12.0805145 72.0607334,11.081418 70.2929686,11.2351251 L65.9675865,11.619393 L65.9675865,14.309298 L69.8416244,13.9634569 L69.8416244,28.0276624 L64.5759418,28.0276624 L64.5759418,30.7175378 Z M85.3237436,28.4503571 L85.3237436,14.309298 L91.1536064,14.309298 L91.1536064,11.619393 L85.3237436,11.619393 L85.3237436,5.74009399 L82.2771702,6.70076377 L82.2771702,11.619393 L78.1398482,11.619393 L78.1398482,14.309298 L82.2771702,14.309298 L82.2771702,28.4887839 C82.2771702,30.2564163 83.0670226,31.2170861 84.8347874,31.1018057 L91.9058468,30.7175378 L91.9058468,28.0276624 L85.3237436,28.4503571 Z M95.9158666,17.1528805 C95.9158666,25.0687995 100.542145,31.1018057 108.327833,31.1018057 C115.097996,31.1018057 119.536214,26.9517123 120.326066,20.2270238 L117.241881,20.2270238 C116.640089,25.4146406 113.518291,28.4119304 108.327833,28.4119304 C102.159462,28.4119304 99.000052,23.7238618 99.000052,17.1528805 C99.000052,10.6202965 102.159462,5.93222795 108.327833,5.93222795 C113.518291,5.93222795 116.640089,8.89109087 117.241881,14.0787372 L120.326066,14.0787372 C119.536214,7.39244601 115.097996,3.24235257 108.327833,3.24235257 C100.542145,3.24235257 95.9158666,9.27535878 95.9158666,17.1528805 Z M122.087032,30.7175378 L135.627359,30.7175378 L135.627359,28.0276624 L130.399288,28.0276624 L130.399288,4.74099742 C130.399288,2.93493824 129.571824,1.93584167 127.841671,2.08954883 L123.478677,2.47381674 L123.478677,5.16369213 L127.352715,4.817851 L127.352715,28.0276624 L122.087032,28.0276624 L122.087032,30.7175378 Z M137.743035,21.1492668 C137.743035,26.7211515 141.654684,31.1018057 147.635285,31.1018057 C153.577983,31.1018057 157.452021,26.7211515 157.452021,21.1492668 C157.452021,15.6158089 153.577983,11.2351251 147.635285,11.2351251 C141.654684,11.2351251 137.743035,15.6158089 137.743035,21.1492668 Z M140.82722,21.1492668 C140.82722,17.1913073 143.196777,13.9250301 147.635285,13.9250301 C152.035891,13.9250301 154.405448,17.1913073 154.405448,21.1492668 C154.405448,25.1456531 152.035891,28.4119304 147.635285,28.4119304 C143.196777,28.4119304 140.82722,25.1456531 140.82722,21.1492668 Z M169.192757,28.4119304 C165.958124,28.4119304 164.453643,26.8748587 164.453643,22.8784724 L164.453643,11.619393 L161.369458,11.619393 L161.369458,23.3011671 C161.369458,28.6040643 164.115135,31.1018057 168.365293,31.1018057 C172.427391,31.1018057 174.796948,28.6809179 175.549188,25.2225067 L176.414265,25.2225067 L175.925309,27.4128338 L175.925309,30.7175378 L178.971882,30.7175378 L178.971882,11.619393 L175.925309,11.619393 L175.925309,20.1117435 C175.925309,25.2225067 173.142019,28.4119304 169.192757,28.4119304 Z M189.417897,28.4503571 L189.417897,14.309298 L195.24776,14.309298 L195.24776,11.619393 L189.417897,11.619393 L189.417897,5.74009399 L186.371323,6.70076377 L186.371323,11.619393 L182.234001,11.619393 L182.234001,14.309298 L186.371323,14.309298 L186.371323,28.4887839 C186.371323,30.2564163 187.161176,31.2170861 188.928941,31.1018057 L196,30.7175378 L196,28.0276624 L189.417897,28.4503571 Z" id="Shape" fill="#222222"></path>
            <path d="M13.1284093,35.1203018 L24.8095418,20.2972019 C24.9986132,20.0571368 24.8284926,19.7037037 24.5238208,19.7037037 L0.36513929,19.7037037 C0.054909023,19.7037037 -0.113459335,20.0682686 0.0868791564,20.306283 L12.5644165,35.1295294 C12.7130935,35.3061728 12.9854905,35.3017787 13.1284093,35.1203018 Z" id="Path" stroke="#000000" fill="#FFFFFF"></path>
            <path d="M24.4748767,19.2547281 L12.6664691,13.5531455 C12.4608873,13.4537379 12.2212622,13.4580087 12.0191676,13.5643381 L0.391636874,19.685642 C-0.115073101,19.9523491 -0.134098391,20.6800133 0.357962664,20.9736709 L11.9640852,27.8981888 C12.1954719,28.0363286 12.4831179,28.0336778 12.7120781,27.8915616 L24.5418589,20.5474697 C25.0334013,20.242325 24.9953333,19.5061191 24.4748767,19.2547281 Z" id="Path" stroke="#000000" fill="#FFFFFF"></path>
            <path d="M13.1284093,21.6388742 L24.8095418,6.81570556 C24.9986132,6.57565525 24.8284926,6.22222222 24.5238208,6.22222222 L0.36513929,6.22222222 C0.054909023,6.22222222 -0.113459335,6.58686023 0.0868791564,6.82485995 L12.5644165,21.6481019 C12.7130935,21.8247451 12.9854905,21.8202045 13.1284093,21.6388742 Z" id="Path" stroke="#000000" fill="#FFFFFF"></path>
            <path d="M24.4748767,5.77331294 L12.6664691,0.0715853171 C12.4608873,-0.0276900347 12.2212622,-0.0235075395 12.0191676,0.0828809995 L0.391636874,6.20409522 C-0.115073101,6.4708471 -0.134098391,7.19857181 0.357962664,7.49214173 L11.9640852,14.4167632 C12.1954719,14.5547561 12.4831179,14.5522525 12.7120781,14.410136 L24.5418589,7.06601322 C25.0334013,6.76080889 24.9953333,6.0246161 24.4748767,5.77331294 Z" id="Path" stroke="#000000" fill="#FFFFFF"></path>
        </g>
    </g>
</svg>