<?xml version="1.0" encoding="UTF-8"?>
<svg width="200px" height="200px" viewBox="0 0 200 200" version="1.1" xmlns="http://www.w3.org/2000/svg" xmlns:xlink="http://www.w3.org/1999/xlink">
    <title>apple</title>
    <g id="apple" stroke="none" stroke-width="1" fill="none" fill-rule="evenodd">
        <g transform="translate(60.300000, 53.000000)" fill="#0DA8FF" fill-rule="nonzero" id="path4">
            <path d="M77.717018,73.2545381 C76.3015501,76.5386385 74.6260976,79.5616314 72.6848827,82.3409293 C70.0388218,86.1298247 67.8722887,88.7524622 66.202613,90.2088417 C63.6143286,92.5993838 60.8411657,93.823668 57.8715696,93.8932938 C55.7397011,93.8932938 53.1687472,93.2840516 50.176042,92.0481679 C47.1735165,90.8180745 44.414219,90.2088417 41.8912177,90.2088417 C39.2451577,90.2088417 36.4072864,90.8180745 33.3718298,92.0481679 C30.3317467,93.2840516 27.8826983,93.9281114 26.0102351,93.9919374 C23.1625426,94.113783 20.3240967,92.8546784 17.4908472,90.2088417 C15.6825149,88.6248102 13.4206541,85.9093383 10.7110417,82.0624167 C7.80384322,77.9543913 5.41372327,73.190713 3.54126029,67.7597665 C1.53591686,61.8936478 0.530645161,56.2132036 0.530645161,50.7137921 C0.530645161,44.4142433 1.88602876,38.9809758 4.60083973,34.4279159 C6.73444197,30.7707323 9.57288983,27.885832 13.1254255,25.7679933 C16.6779649,23.6501584 20.5164845,22.5709322 24.6502319,22.5018835 C26.9120908,22.5018835 29.878222,23.204541 33.5642167,24.5854875 C37.2398138,25.9710747 39.5998917,26.6737331 40.6346262,26.6737331 C41.408223,26.6737331 44.030018,25.8521261 48.47459,24.2141414 C52.6776676,22.6951005 56.2250039,22.0661306 59.1310476,22.3138882 C67.005676,22.9521407 72.9217573,26.0697135 76.8561831,31.6863327 C69.8135046,35.9719072 66.3297178,41.9743785 66.3990461,49.6746006 C66.4625976,55.6724301 68.6291307,60.6635611 72.8870917,64.6265304 C74.8167492,66.4658537 76.9717306,67.8874156 79.3693548,68.897016 C78.849394,70.4114142 78.3005388,71.8619874 77.717018,73.2545381 Z M59.6567946,1.88053572 C59.6567946,6.58160806 57.9466747,10.9709868 54.5379978,15.0337502 C50.4244692,19.863581 45.4489555,22.6544822 40.0534182,22.2140894 C39.9846674,21.6501054 39.9448035,21.0565321 39.9448035,20.4327866 C39.9448035,15.9197613 41.9010389,11.0899325 45.3750054,7.14089206 C47.1093847,5.14142378 49.3152052,3.47889285 51.990153,2.15266007 C54.6593221,0.846215224 57.1840568,0.123723735 59.5585757,0 C59.6279087,0.628460473 59.6567946,1.25695949 59.6567946,1.88047462 L59.6567946,1.88053572 Z"></path>
        </g>
    </g>
</svg>