<?xml version="1.0" encoding="UTF-8"?>
<svg width="200px" height="200px" viewBox="0 0 200 200" version="1.1" xmlns="http://www.w3.org/2000/svg" xmlns:xlink="http://www.w3.org/1999/xlink">
    <title>birkenstock</title>
    <g id="birkenstock" stroke="none" stroke-width="1" fill="none" fill-rule="evenodd">
        <g transform="translate(20.000000, 86.000000)" fill="#034EA2">
            <path d="M123.630546,5.36422201 C125.034349,5.36422201 125.61509,10.6078489 125.637701,13.8974579 C125.661443,17.06308 124.960107,22.7193683 123.509951,22.7193683 L123.02644,22.7193683 C121.361473,22.7193683 120.972177,17.616687 120.948435,13.9445653 C120.92507,10.5373761 121.529176,5.36422201 123.077316,5.36422201 L123.630546,5.36422201 Z M123.245018,0 C121.021923,0 119.233346,0.819293147 117.661841,3.57526867 C116.212061,6.08930022 115.607578,9.93289304 115.607578,13.9208232 C115.607578,17.9087533 115.993483,21.7022238 117.420651,24.3372273 C118.675594,26.7306637 120.73061,28.0093489 123.245018,27.9859836 C126.121589,27.9626183 127.525015,27.0698375 129.095766,24.3372273 C130.569288,21.7255891 130.908839,17.9087533 130.908839,13.9208232 C130.908839,9.93289304 130.425328,6.16316473 129.069386,3.43055452 C127.693094,0.69832116 125.564213,0 123.245018,0" id="path2512"></path>
            <path d="M111.377704,5.36422201 L114.157799,5.36422201 C114.446096,5.36422201 114.956365,4.9783176 114.956365,4.66250911 L114.97973,0.69832116 C114.97973,0.433011879 114.761905,0.0704727776 114.398989,0.0704727776 L102.941698,0.0704727776 C102.700131,0.0704727776 102.388091,0.335782058 102.388091,0.577349173 L102.388091,4.66250911 C102.388091,5.02542508 102.844468,5.31711454 103.113169,5.31711454 L105.86613,5.31711454 L105.86613,27.2137979 C105.86613,27.6000792 106.134831,27.9155108 106.520359,27.9155108 L110.750609,27.9155108 C111.136137,27.9155108 111.353962,27.6471867 111.353962,27.3114046 L111.377704,5.36422201 Z" id="path2516"></path>
            <path d="M83.8006134,28.0832888 L87.3755052,28.0365582 C87.9091386,28.0365582 88.0534759,27.3819528 88.0534759,27.0194137 L88.0534759,0.288749958 L82.7597267,0.288749958 L82.7597267,10.8762484 C82.7597267,12.782782 81.5511374,12.1786758 81.4806646,11.9133665 L77.4923577,1.06093563 C77.4184931,0.893233034 77.2002913,0.241642487 76.9353589,0.241642487 L72.2690812,0.191143277 L72.2690812,26.948564 C72.2690812,27.5025479 72.3429457,28.107031 73.1418884,28.107031 L76.6700496,28.107031 C77.4422353,28.107031 77.7343016,27.8183564 77.7343016,27.0194137 L77.7343016,16.4820376 C77.7343016,15.4415277 78.6270824,15.8040668 78.8923917,16.529145 L82.8332144,26.8012119 C82.9775517,27.2138733 83.4139553,28.0832888 83.8006134,28.0832888" id="path2520"></path>
            <path d="M62.5536362,16.5559382 L69.0797169,16.5291812 C69.3450262,16.5291812 69.9728746,16.5291812 69.9728746,16.1666421 L69.9728746,11.6718356 C69.9728746,11.5037561 69.6842,11.1649592 69.4893635,11.1649592 L62.5536362,11.1649592 L62.5536362,5.48492869 L69.442256,5.48492869 C69.7075653,5.48492869 70.1439689,5.31722609 70.1439689,5.02515977 L70.1439689,1.01386434 C70.1439689,0.627583073 69.7814298,0.191179455 69.4893635,0.191179455 L57.6962906,0.191179455 C57.4780888,0.191179455 57.017943,0.554095417 57.017943,0.892892353 L57.017943,27.5259494 C57.017943,27.841381 57.4042243,28.204297 57.6729253,28.204297 L69.2979187,28.204297 C69.6103355,28.204297 69.9257671,27.9156224 69.9257671,27.4792188 L69.9257671,23.6593681 C69.9257671,23.3465745 69.442256,23.0077776 69.2979187,23.0077776 L62.5536362,23.0315197 L62.5536362,16.5559382 Z" id="path2524"></path>
            <path d="M45.9503252,18.8754348 C45.9503252,17.4723858 46.9407127,17.6167231 47.1317806,17.9792622 L50.2506721,27.6973452 C50.2740374,27.8650478 50.5156045,28.2780861 50.8076708,28.2780861 L54.5540338,28.2780861 C54.8193431,28.2780861 55.0846524,27.8416825 55.0846524,27.6973452 L50.4217664,11.7222594 L54.456804,2.00379959 C54.7722357,1.39969338 55.1347748,0.241603293 53.9265623,0.241603293 L50.6365765,0.241603293 C50.3712672,0.241603293 49.8643908,0.748479688 49.8176602,0.939924453 L47.5214536,6.3075382 C47.08505,7.3717902 45.9736905,7.49238533 45.9736905,6.3075382 L45.9736905,0.433048058 L41.0187382,0.433048058 C40.8476439,0.433048058 40.7033066,0.939924453 40.7033066,0.990423662 C40.7033066,9.61749759 40.6795644,18.4390312 40.6795644,27.0928621 C40.6795644,27.6472229 41.357912,28.2279638 41.5994791,28.2279638 L45.899826,28.2042216 L45.9503252,18.8754348 Z" id="path2528"></path>
            <path d="M150.268502,18.7043043 C150.268502,17.3046471 151.258513,17.4486075 151.453349,17.8115235 L154.545107,27.5262147 C154.568472,27.697309 154.837173,28.1069556 155.102859,28.1069556 L158.848469,28.1069556 C159.137897,28.1069556 159.402829,27.6735669 159.402829,27.5262147 L154.739943,11.550752 L158.751616,1.83606081 C159.090789,1.2319546 159.452952,0.0704727776 158.245116,0.0704727776 L154.957768,0.0704727776 C154.689821,0.0704727776 154.182945,0.577349173 154.135837,0.74844351 L151.816265,6.11266552 C151.403604,7.20065969 150.291867,7.32125481 150.291867,6.11266552 L150.291867,0.26530928 L145.313173,0.26530928 C145.169213,0.26530928 145.02186,0.74844351 145.02186,0.819293147 C145.02186,9.44975881 144.998495,18.2712924 144.998495,26.9217316 C144.998495,27.4794841 145.652724,28.060225 145.917656,28.060225 L150.21838,28.0364828 L150.268502,18.7043043 Z" id="path2532"></path>
            <polygon id="path2534" points="21.6089133 0.48324578 16.3419211 0.48324578 16.3419211 28.1809317 21.6089133 28.1809317"></polygon>
            <path d="M5.27038393,16.7473076 L7.51948305,16.7473076 C8.79854512,16.7473076 8.91951711,17.8582903 8.94288242,19.9867942 C8.96963946,22.8132425 8.60710036,23.2496462 7.51948305,23.2496462 L5.27038393,23.2496462 L5.27038393,16.7473076 Z M5.24664176,5.65293278 L7.30128125,5.65293278 C8.48612837,5.65293278 8.58034332,6.64633514 8.60710036,8.58000263 C8.63046567,11.1415185 8.29166873,11.5507882 7.30128125,11.5507882 L5.24664176,11.5507882 L5.24664176,5.65293278 Z M0.31543163,28.2042216 L8.45937133,28.2042216 C12.5682734,28.2042216 14.1661589,25.3039088 14.1661589,21.1953835 L14.1661589,19.1173788 C14.1661589,16.3847685 13.7534974,15.031842 12.2057343,13.897494 L12.2328682,13.3401184 C13.5115534,11.9871918 13.8273619,10.6346421 13.8273619,9.27832379 L13.7768627,6.16320091 C13.7297553,2.19901296 12.4476783,0.530654739 8.07346692,0.530654739 L0.533633439,0.530654739 C0.31543163,0.530654739 0,0.748479688 0,0.966681497 L0,27.673603 C0,27.8650478 0.0972298215,28.2042216 0.31543163,28.2042216" id="path2538"></path>
            <path d="M25.2108274,28.3990581 L29.5379314,28.3990581 C29.7561332,28.3990581 29.8266059,27.9626545 29.8266059,27.7207105 L29.8266059,20.4932938 C29.8266059,19.842457 30.7231553,19.9125529 30.8437505,20.4932938 L32.9684859,27.6973452 C33.0427272,27.8183172 33.2842944,28.3485589 33.6234682,28.3485589 L38.1653821,28.3485589 C38.383584,28.3485589 38.6017858,27.6472229 38.5512866,27.5025087 L35.7014729,17.6905877 L35.7014729,16.8211722 C37.128264,16.2641734 38.7694884,13.4377251 38.7694884,11.6483949 L38.7694884,6.42851019 C38.7694884,0.990423662 35.7482036,0.456413364 32.1461778,0.456413364 L25.2108274,0.456413364 C24.9692603,0.456413364 24.6067212,0.604142395 24.6067212,0.846086369 L24.6067212,27.8183172 C24.6067212,28.1069918 24.9692603,28.3990581 25.2108274,28.3990581 M29.7794985,12.228759 L29.8032406,5.70305513 C29.9977003,5.65293278 30.9142232,5.65293278 31.1090597,5.65293278 C33.381901,5.65293278 33.6468399,6.64633514 33.6468399,8.86905408 C33.6468399,11.9133273 33.6705756,12.2996086 30.8437505,12.2525011 C30.7702628,12.2525011 29.9238358,12.228759 29.7794985,12.228759" id="path2542"></path>
            <path d="M90.1819799,25.2568405 C90.1819799,25.6664871 90.3734247,26.0523915 90.9771541,26.4386728 C91.8469464,27.0194137 93.4915625,28.107031 96.7080606,28.228003 C101.588772,28.4691932 103.378102,24.4812631 103.378102,20.3727379 C103.378102,16.4820376 101.394312,14.5721122 98.9771333,12.108203 C97.3121668,10.4398448 95.5936863,9.23125552 95.5936863,7.68386929 C95.5936863,6.04226812 97.6008414,4.32378755 99.3901716,6.54914451 C99.6788462,6.88831831 100.743098,7.25085741 100.743098,6.18660541 L100.743098,2.00383879 C100.11525,1.18153076 98.3492849,0.241642487 96.8523979,0.241642487 C92.5486593,0.191143277 90.1314807,3.28629259 90.1819799,7.51616669 C90.2049684,10.9467212 92.2091087,13.1958203 95.0159602,15.8040668 C96.6108308,17.2542232 97.9166499,18.4628125 97.9166499,20.4232371 C97.9166499,22.0644614 96.9492509,23.1520787 95.3513654,23.1283365 C94.653798,23.1283365 92.1620012,21.678557 91.6321363,21.1954227 C90.517762,20.2521427 90.1819799,20.7857762 90.1819799,21.557585 L90.1819799,25.2568405 Z" id="path2546"></path>
            <path d="M142.873383,25.9822202 L142.873383,22.9108131 C142.873383,21.9437909 141.832496,22.1619927 141.37235,22.5712624 C139.150385,24.5554291 138.159621,20.0606226 138.23047,13.8469586 C138.28097,9.35215213 139.17375,4.59203634 141.251755,5.58242382 C141.832496,5.8477331 142.993978,6.69340643 142.993978,5.70301895 L142.993978,1.4230225 C142.484087,0.74844351 141.22839,0.0942149433 140.019801,0.0942149433 C135.742442,0.0942149433 133.033574,4.08214506 132.842506,14.0417951 C132.648047,22.9108131 134.896769,28.1303209 139.462425,28.060225 C140.721137,28.0364828 142.873383,27.9388761 142.873383,25.9822202" id="path2550"></path>
        </g>
    </g>
</svg>