<?xml version="1.0" encoding="UTF-8"?>
<svg width="200px" height="200px" viewBox="0 0 200 200" version="1.1" xmlns="http://www.w3.org/2000/svg" xmlns:xlink="http://www.w3.org/1999/xlink">
    <title>bose</title>
    <g id="bose" stroke="none" stroke-width="1" fill="none" fill-rule="evenodd">
        <g transform="translate(20.000000, 90.000000)" fill="#000000" fill-rule="nonzero">
            <path d="M109.17256,8.09507246 L97.9285024,8.09507246 L99.7518841,4.98009662 C100.510918,3.68927536 101.194976,3.23323671 102.335072,3.23323671 C103.474396,3.23323671 103.854686,4.14454106 103.24715,5.28386473 L114.719227,5.28386473 L115.859324,3.23323671 C116.694879,1.71362319 116.694879,0.0417391304 114.643478,0.0417391304 L94.4340097,0.0417391304 C92.610628,0.0417391304 91.1667633,0.269758454 90.1031884,2.0173913 L86.5321739,8.09507246 C85.5451208,9.84270531 85.6208696,11.28657 88.0517874,11.28657 L99.6761353,11.28657 L97.7770048,14.6287923 C97.2452174,15.5408696 96.5611594,16.1484058 94.9657971,16.1484058 C93.5976812,16.1484058 93.6742029,15.2371014 94.2817391,14.3257971 L82.8854106,14.3257971 L81.5172947,16.6052174 C80.6817391,18.0490821 81.3657971,19.3406763 83.3406763,19.3406763 L103.397874,19.3406763 C105.221256,19.3406763 106.816618,18.5051208 107.728696,16.9855072 L111.14744,11.287343 C111.908019,9.84270531 111.527729,8.09507246 109.17256,8.09507246 Z" id="path5"></path>
            <path d="M83.2657005,0.0417391304 L66.094686,0.0417391304 C63.7395169,0.0417391304 60.7002899,0.0417391304 58.8769082,3.23323671 L51.2788406,16.1484058 C50.2152657,17.8960386 51.127343,19.3399034 53.1022222,19.3399034 L73.0844444,19.3399034 C75.1358454,19.3399034 76.4274396,18.7315942 78.0228019,16.1484058 L85.6208696,3.23323671 C86.6079227,1.5621256 85.0883092,0.0417391304 83.2657005,0.0417391304 Z M73.6162319,4.98009662 L67.9188406,14.6287923 C67.1590338,15.9969082 66.4749758,16.1484058 64.727343,16.1484058 C62.9797101,16.1484058 62.5236715,15.5408696 63.0562319,14.6287923 L68.8301449,4.98009662 C69.6664734,3.53623188 70.6535266,3.23323671 72.0973913,3.23323671 C73.541256,3.23323671 74.3760386,3.68927536 73.6162319,4.98009662 Z" id="path9"></path>
            <path d="M53.178744,0.0417391304 L31.1458937,0.0417391304 L21.6494686,16.1484058 L0.680193237,16.1484058 L0.69065229,19.3399034 L42.9982609,19.3399034 C45.8094686,19.3399034 46.7207729,17.9717874 47.3290821,16.9082126 L49.6077295,12.9576812 C50.2160386,11.8941063 50.2160386,10.6782609 49.0001932,9.99497585 C50.2183575,9.99497585 51.8871498,9.15942029 52.8749758,7.41178744 L55.1543961,3.53700483 C56.2944928,1.6378744 54.9263768,0.0417391304 53.178744,0.0417391304 Z M41.8589372,13.0342029 L40.7188406,14.8568116 C40.4150725,15.4651208 39.883285,16.1484058 38.5916908,16.1484058 L32.9692754,16.1484058 L35.8585507,11.28657 L41.3263768,11.28657 C42.3142029,11.28657 42.3142029,12.1978744 41.8589372,13.0342029 Z M46.6450242,4.98009662 L45.5049275,6.80347826 C45.2011594,7.41178744 44.669372,8.09507246 43.3777778,8.09507246 L37.7553623,8.09507246 L40.6423188,3.23323671 L46.1124638,3.23323671 C47.1010628,3.23323671 47.1010628,4.14454106 46.6450242,4.98009662 Z" id="path11"></path>
            <polygon id="polygon1317" points="130.792201 3.23093117 159.283022 3.23093117 159.274095 0.0394336618 121.295776 0.0394336618 109.975196 19.3375977 136.414616 19.3375977 138.313747 16.1461001 123.194906 16.1461001 126.081863 11.2842643 141.200703 11.2842643 143.024085 8.09276676 127.981766 8.09276676"></polygon>
        </g>
    </g>
</svg>