<?xml version="1.0" encoding="UTF-8"?>
<svg width="200px" height="200px" viewBox="0 0 200 200" version="1.1" xmlns="http://www.w3.org/2000/svg" xmlns:xlink="http://www.w3.org/1999/xlink">
    <title>cboe</title>
    <g id="cboe" stroke="none" stroke-width="1" fill="none" fill-rule="evenodd">
        <g transform="translate(30.000000, 76.000000)" fill-rule="nonzero" id="Shape">
            <path d="M64.827524,42.5399525 C64.7450024,42.5444383 64.6579795,42.5444383 64.5694563,42.5444383 C59.4411095,42.5444383 56.2587738,38.402587 56.2587738,31.7277769 C56.2587738,25.0514715 59.469617,20.9096203 64.6339732,20.9096203 C64.8215225,20.9096203 65.0030701,20.9156013 65.1846178,20.9275633 C69.9903798,21.2131566 72.9506572,25.296693 72.9506572,31.7277769 C72.9506572,38.2859573 69.8448416,42.4038845 64.827524,42.5384573 L64.827524,42.5399525 Z M65.2671395,15.8990269 C65.2671395,15.8990269 65.0210749,15.8870649 64.8980426,15.8930459 C64.7870134,15.8870649 64.6804854,15.8870649 64.5694563,15.8870649 C61.0645359,15.8870649 57.976725,16.8559889 55.52058,18.7205696 L55.52058,4.37511076 L49.6660426,4.37511076 L49.6660426,46.9838449 L54.770383,46.9838449 L55.1394799,44.5824684 C57.6076281,46.5696598 60.8484791,47.5684889 64.6339732,47.5684889 L64.7450024,47.5684889 C69.0526336,47.5445649 72.7105942,46.0612737 75.3422853,43.2741218 C78.0084854,40.4421123 79.4263578,36.4467959 79.4263578,31.7277769 C79.4263578,22.3525396 73.894405,16.2145253 65.2671395,15.8990269 L65.2671395,15.8990269 Z M95.8196627,42.5444383 C90.6973176,42.5444383 87.5089803,38.402587 87.5089803,31.7277769 C87.5089803,25.0514715 90.7198235,20.9096203 95.8841797,20.9096203 C101.012526,20.9096203 104.200864,25.0514715 104.200864,31.7277769 C104.200864,38.4040823 100.99002,42.5444383 95.8196627,42.5444383 L95.8196627,42.5444383 Z M95.8196627,15.8870649 C91.4775225,15.8870649 87.7730496,17.376337 85.1173522,20.2038608 C82.4466509,23.0418513 81.0332797,27.0311867 81.0332797,31.7277769 C81.0332797,41.3527215 85.7340142,47.5669937 95.8841797,47.5669937 C100.239823,47.5669937 103.936794,46.0837025 106.58649,43.2756171 C109.264693,40.4421123 110.672063,36.4467959 110.672063,31.7277769 C110.672063,22.101337 104.846033,15.8870649 95.8196627,15.8870649 L95.8196627,15.8870649 Z M126.531228,20.5836551 C121.215332,20.5836551 118.876217,24.9572706 118.561135,28.6550316 L133.875656,28.6550316 C133.875656,24.5251424 131.782607,20.5836551 126.531228,20.5836551 L126.531228,20.5836551 Z M118.561135,33.205087 C118.625652,39.3266535 121.77798,42.5504193 127.458471,42.5504193 C133.065444,42.5504193 136.342304,39.4612263 136.676892,39.1337658 L139.226061,43.245712 C139.226061,43.245712 135.193002,47.5221361 126.742783,47.5221361 C118.291064,47.5221361 112.283486,41.7265348 112.283486,31.7920728 C112.283486,21.7918196 118.555133,15.9334177 126.742783,15.9334177 C134.930433,15.9334177 139.7542,22.0549842 139.7542,30.7409098 L139.689683,33.1706962 L118.561135,33.205087 L118.561135,33.205087 Z" fill="#1D2953"></path>
            <path d="M38.5001103,18.7145886 L34.6621024,14.8882358 L38.5001103,11.0618829 L42.3396186,14.8882358 L38.5001103,18.7145886 Z M38.5061119,7.65719146 L34.6666036,3.83083861 L38.5076123,0.00598101266 L42.3456202,3.83083861 L38.5061119,7.65719146 Z M44.0515682,13.1881329 L40.2105595,9.36327532 L42.3456202,7.24300633 L44.0500678,5.53841772 L47.889576,9.36327532 L44.0515682,13.1881329 Z" fill="#33B540"></path>
            <path d="M21.5861686,41.680182 C13.0114169,41.680182 7.43745311,34.8050079 7.43745311,24.7359731 C7.43745311,14.6669383 13.2919905,7.78578323 21.7902222,7.78578323 C28.0273601,7.78578323 30.7985879,10.9347864 32.962156,13.1836472 L36.7941623,9.35131329 C34.7431237,7.26543513 30.6650528,2.16064082 21.5861686,2.16064082 C10.3632214,2.16064082 0.750197006,10.5654589 0.750197006,24.80625 C0.750197006,39.0410601 9.38946572,47.5146598 21.305595,47.5146598 C30.1609204,47.5146598 34.972684,42.8360127 36.8586793,40.4361313 L32.8796344,36.4647389 C31.1511805,38.4788449 27.463212,41.680182 21.5861686,41.680182" fill="#1D2953"></path>
        </g>
    </g>
</svg>