<?xml version="1.0" encoding="UTF-8"?>
<svg width="200px" height="200px" viewBox="0 0 200 200" version="1.1" xmlns="http://www.w3.org/2000/svg" xmlns:xlink="http://www.w3.org/1999/xlink">
    <title>deribit</title>
    <g id="deribit" stroke="none" stroke-width="1" fill="none" fill-rule="evenodd">
        <g transform="translate(65.000000, 64.901099)">
            <path d="M50.868775,23.3793501 C49.731723,23.0508638 48.5523093,22.8900183 47.3682469,22.9019567 L22.0652174,22.9645656 L22.0652174,45.726841 L47.3013077,45.726841 C49.7992839,45.7522911 52.23376,44.9449382 54.2157366,43.4337873 C55.4600049,42.4583321 56.4780326,41.2277627 57.2004388,39.8259451 C59.0901262,36.22989 59.0457956,31.933124 57.0823107,28.3763289 C55.7630417,25.9551269 53.5267154,24.156654 50.868775,23.3793501 L50.868775,23.3793501 Z" id="Path"></path>
            <path d="M69.9993402,34.5592964 C69.7565607,24.1748963 64.8010059,18.3713882 59.9079325,15.1620208 C55.9873646,12.6353074 51.4188971,11.3078001 46.7595061,11.3413453 L45.5879802,11.3413453 L45.5879802,0.0752508361 L34.5600158,0.0752508361 L34.5600158,11.3413453 L22.5518747,11.3413453 L22.5518747,0.0752508361 L11.5200053,0.0752508361 L11.5200053,11.3413453 L0,11.3413453 L0.0507661249,22.9013378 L11.4731442,22.9013378 L11.4731442,45.6804011 L0,45.6804011 L0,56.8955531 L11.5200053,56.8955531 L11.5200053,68.5535117 L22.5518747,68.5535117 L22.5518747,56.8955531 L34.5600158,56.8955531 L34.5600158,68.5535117 L45.5918853,68.5535117 L45.5918853,56.8955531 L47.5444285,56.8955531 C51.392113,56.9184718 55.1844312,55.9755205 58.576298,54.1525041 C70.2915576,47.7651183 69.9993402,34.5592964 69.9993402,34.5592964 L69.9993402,34.5592964 Z M57.4282026,39.8181133 C56.7117618,41.2219301 55.7021406,42.4542545 54.468147,43.4311008 C52.5025368,44.9444068 50.0881638,45.7529111 47.610815,45.7274247 L22.5831154,45.7274247 L22.5831154,22.9326869 L47.6772015,22.8699887 C48.8540998,22.8572646 50.0264616,23.0183472 51.1566336,23.3480629 C53.7926256,24.1264754 56.0104852,25.9275132 57.3188601,28.3521682 C59.263677,31.9153502 59.3047106,36.2182367 57.4282026,39.8181133 L57.4282026,39.8181133 Z" id="Shape" fill="#2DAE9A" fill-rule="nonzero"></path>
        </g>
    </g>
</svg>