<?xml version="1.0" encoding="UTF-8"?>
<svg width="200px" height="200px" viewBox="0 0 200 200" version="1.1" xmlns="http://www.w3.org/2000/svg" xmlns:xlink="http://www.w3.org/1999/xlink">
    <title>Artboard</title>
    <g id="Artboard" stroke="none" stroke-width="1" fill="none" fill-rule="evenodd">
        <g id="discord" transform="translate(55.000000, 66.000000)" fill="#5865F2" fill-rule="nonzero">
            <path d="M76.1888009,5.68654904 C70.4525052,3.05449277 64.3011955,1.11530971 57.8696182,0.0046590355 C57.7524914,-0.0167761753 57.6354914,0.0367915699 57.5751534,0.143929596 C56.7840408,1.55098576 55.907745,3.38660543 55.2940971,4.82939413 C48.3765198,3.79376035 41.4944355,3.79376035 34.7187033,4.82939413 C34.1049286,3.35453501 33.196816,1.55098576 32.402154,0.143929596 C32.341816,0.0403662177 32.224816,-0.0132015275 32.1076892,0.0046590355 C25.6796612,1.11176042 19.5283515,3.05094347 13.7885066,5.68654904 C13.7388164,5.70797158 13.6962249,5.74371805 13.6679573,5.79011242 C2.00021812,23.2214641 -1.19606335,40.2243651 0.371925486,57.0164633 C0.379020274,57.0986041 0.425137034,57.1771957 0.488992666,57.2271394 C8.18703347,62.8804068 15.6439009,66.312449 22.9622951,68.587294 C23.0794218,68.6230405 23.2035204,68.5801954 23.2780556,68.4837306 C25.0092246,66.1196462 26.5524077,63.6268998 27.8755344,61.0054914 C27.9536189,60.8519843 27.8790837,60.6698294 27.7194922,60.6091111 C25.2717457,59.68059 22.9409993,58.5484914 20.6989853,57.2628858 C20.5216473,57.1593225 20.5074501,56.9056746 20.6705909,56.784238 C21.1423937,56.4307028 21.6143233,56.0628436 22.0648303,55.6914352 C22.1463374,55.6236183 22.2599148,55.6092943 22.3557458,55.6521394 C37.0848159,62.3769139 53.0307873,62.3769139 67.5860687,55.6521394 C67.6818997,55.605745 67.7954771,55.620069 67.8805334,55.6878859 C68.3311672,56.0592943 68.80297,56.4307028 69.2783221,56.784238 C69.441463,56.9056746 69.4308151,57.1593225 69.2534771,57.2628858 C67.011463,58.5734633 64.6807166,59.68059 62.2294209,60.6055618 C62.0698294,60.6662801 61.9988434,60.8519843 62.076928,61.0054914 C63.428449,63.6232237 64.9716321,66.1159701 66.6708574,68.4801813 C66.7418433,68.5801954 66.8694912,68.6230405 66.986618,68.587294 C74.3405051,66.312449 81.7973218,62.8804068 89.4953639,57.2271394 C89.5628005,57.1771957 89.6053921,57.1021534 89.6124907,57.0200126 C91.489054,37.606506 86.4693358,20.7430416 76.3058009,5.79366171 C76.2809558,5.74371805 76.238491,5.70797158 76.1888009,5.68654904 Z M30.0750836,46.7918297 C25.640619,46.7918297 21.9867458,42.7206608 21.9867458,37.720844 C21.9867458,32.7210273 25.5697598,28.6498584 30.0750836,28.6498584 C34.6157737,28.6498584 38.2342806,32.7567737 38.1632947,37.720844 C38.1632947,42.7206608 34.5802807,46.7918297 30.0750836,46.7918297 Z M59.9803083,46.7918297 C55.5459704,46.7918297 51.8920972,42.7206608 51.8920972,37.720844 C51.8920972,32.7210273 55.4749844,28.6498584 59.9803083,28.6498584 C64.5211251,28.6498584 68.1395053,32.7567737 68.0686461,37.720844 C68.0686461,42.7206608 64.5211251,46.7918297 59.9803083,46.7918297 Z" id="Shape"></path>
        </g>
    </g>
</svg>