<?xml version="1.0" encoding="UTF-8"?>
<svg width="200px" height="200px" viewBox="0 0 200 200" version="1.1" xmlns="http://www.w3.org/2000/svg" xmlns:xlink="http://www.w3.org/1999/xlink">
    <title>lululemon</title>
    <g id="lululemon" stroke="none" stroke-width="1" fill="none" fill-rule="evenodd">
        <g transform="translate(59.000000, 59.000000)" fill="#CF0A2C" fill-rule="nonzero" id="Combined-Shape">
            <path d="M40.9844461,-2.95032294e-06 C51.8610169,-0.00412321068 62.2935236,4.31368565 69.9858794,12.0031245 C77.6782353,19.6925633 81.9999987,30.1234316 81.9999987,40.999997 C81.9999987,63.6416529 63.6468321,81.997138 41.0051827,81.999997 C18.3635332,82.002862 0.00572706113,63.6520175 -1.33905733e-06,41.0103684 C-0.00572438176,18.3687194 18.3427981,0.00859235127 40.9844461,-2.95032294e-06 Z M41.853361,11.3433494 L40.115323,11.3433494 C35.7177617,11.2931215 31.3373351,11.8960687 27.1191825,13.1322132 C24.2543267,13.9376242 21.6901815,15.5601294 19.7442642,17.7988143 C16.2681881,22.1854194 17.1293781,27.9875601 18.1001742,31.9697264 C19.2152996,35.7535818 20.831793,39.3733833 22.9071803,42.7340197 C27.4636585,50.9316824 29.7497266,56.2360523 23.0637604,60.6537681 C21.9723758,61.4169478 20.6717854,61.8295393 19.3371562,61.8359737 C16.842193,61.6414417 14.4156096,60.9314852 12.212766,59.7515585 L12.604216,60.4359933 C15.8297641,65.3514799 20.0417662,67.9647765 24.7391664,67.9647765 C26.9857068,67.9024265 29.1940847,67.3724994 31.2215786,66.4092428 C33.6910225,65.2735674 35.739333,63.3964717 37.0776709,61.0426515 C38.4400484,58.8436463 38.9933665,56.2436115 38.6434709,53.684977 C37.8793778,50.9506276 36.9486187,48.2649681 35.8563468,45.6428677 C32.5681667,37.1807644 28.0273465,25.6231489 31.9575047,19.9765615 C33.5233047,17.5965949 36.5452988,16.4299446 40.960855,16.4143893 C45.3764112,16.398834 48.3357733,17.5965949 49.9642053,19.9765615 C53.8473895,25.6231489 49.3535433,37.1807644 46.0653632,45.6273124 C44.9570696,48.2695261 44.0106426,50.9759102 43.2312651,53.731643 C42.8763269,56.2954222 43.4298736,58.9020301 44.7970651,61.1048728 C46.1336741,63.4638207 48.1820106,65.3463811 50.6531573,66.4870195 C52.6809636,67.4494029 54.8891525,67.9792847 57.1355696,68.0425532 C61.8329698,68.0425532 66.0919459,65.4292566 69.411442,60.4826594 L69.787234,59.7515585 C67.5657406,60.9406694 65.116767,61.6509327 62.6002118,61.8359737 C61.2658996,61.8275545 59.9658918,61.4151478 58.8736076,60.6537681 C52.1876414,56.2360523 54.4737095,50.9472377 59.0301877,42.7340197 C61.1186532,39.3741292 62.7507892,35.7546685 63.8841678,31.9697264 C64.8393059,27.9875601 65.7004959,22.1854194 62.2244198,17.7988143 C60.2785025,15.5601294 57.7143573,13.9376242 54.8495015,13.1322132 C50.6313985,11.8958402 46.2509371,11.2928883 41.853361,11.3433494 Z"></path>
        </g>
    </g>
</svg>