<?xml version="1.0" encoding="UTF-8"?>
<svg width="200px" height="200px" viewBox="0 0 200 200" version="1.1" xmlns="http://www.w3.org/2000/svg" xmlns:xlink="http://www.w3.org/1999/xlink">
    <title>nasdaq</title>
    <defs>
        <polygon id="path-1" points="0 0 15.4123077 0 15.4123077 24.6153846 0 24.6153846"></polygon>
        <polygon id="path-3" points="0 0.0164102564 27.6923077 0.0164102564 27.6923077 33.8461538 0 33.8461538"></polygon>
        <polygon id="path-5" points="0 0 27.6923077 0 27.6923077 34.6635897 0 34.6635897"></polygon>
    </defs>
    <g id="nasdaq" stroke="none" stroke-width="1" fill="none" fill-rule="evenodd">
        <g transform="translate(20.000000, 77.000000)">
            <path d="M118.253333,34.1825641 C112.824615,34.1825641 109.451282,31.0379487 109.451282,25.9692308 C109.451282,20.7087179 112.564103,17.4358974 117.57641,17.4358974 L117.996923,17.4358974 C118.625641,17.4358974 119.491282,17.4564103 120.673846,17.6041026 L120.673846,11.254359 L124.214359,11.254359 L124.214359,33.6102564 C124.214359,33.6102564 120.850256,34.1825641 118.253333,34.1825641 M118.221538,20.2235897 C114.791795,20.2235897 113.124103,22.0748718 113.124103,25.8810256 C113.124103,29.2984615 115.13641,31.4225641 118.369231,31.4225641 C118.990769,31.4225641 119.702564,31.3815385 120.672821,31.2984615 L120.672821,20.4512821 C119.70359,20.2953846 118.922051,20.2235897 118.221538,20.2235897 M69.7558974,33.6697436 L60.1917949,16.9794872 L60.1887179,33.6697436 L56.8553846,33.6697436 L56.8553846,12.5405128 L61.5220513,12.5405128 L71.0861538,29.0820513 L71.0820513,12.5405128 L74.4594872,12.5405128 L74.4594872,33.6697436 L69.7558974,33.6697436 Z M100.220513,33.9948718 C98.6102564,33.9948718 96.9312821,33.814359 94.9323077,33.4297436 L94.7158974,33.3887179 L94.7158974,30.4369231 L95.0317949,30.5046154 C96.7948718,30.8810256 98.3169231,31.2020513 99.84,31.2020513 C101.069744,31.2020513 103.934359,31.0092308 103.934359,29.1989744 C103.934359,27.6810256 101.954872,27.2994872 100.365128,26.9948718 L100.264615,26.974359 C99.9671795,26.9189744 99.6871795,26.8625641 99.4512821,26.8030769 C97.1189744,26.1979487 94.6307692,25.2882051 94.6307692,22.1630769 C94.6307692,19.1148718 97.0430769,17.3682051 101.250256,17.3682051 C103.269744,17.3682051 104.735385,17.5835897 105.913846,17.76 L106.486154,17.8441026 L106.486154,20.7087179 L106.181538,20.6533333 C104.848205,20.4082051 103.285128,20.1558974 101.782564,20.1558974 C100.111795,20.1558974 98.1292308,20.4687179 98.1292308,21.9548718 C98.1292308,23.1887179 99.7517949,23.5415385 101.630769,23.9507692 C104.258462,24.5189744 107.515897,25.2328205 107.515897,28.8184615 C107.515897,32.1076923 104.859487,33.9948718 100.220513,33.9948718 M134.153846,33.9948718 C130.489231,33.9948718 127.095385,33.3487179 127.095385,28.6697436 C127.095385,23.5774359 132.34359,23.5774359 135.481026,23.5774359 C135.792821,23.5774359 137.267692,23.6461538 137.72,23.665641 C137.715897,20.8092308 137.68,20.1282051 133.537436,20.1282051 C131.895385,20.1282051 130.071795,20.4523077 128.461538,20.7415385 L128.153846,20.7969231 L128.153846,17.9764103 L128.361026,17.9323077 C130.227692,17.5528205 132.027692,17.3682051 133.862564,17.3682051 C137.876923,17.3682051 141.277949,17.7723077 141.277949,22.7528205 L141.277949,33.614359 L141.033846,33.6420513 C138.253333,33.9538462 136.046154,33.9948718 134.154872,33.9948718 M135.392821,26.0974359 C132.367179,26.0974359 130.492308,26.5425641 130.492308,28.7579487 C130.492308,31.3220513 132.884103,31.534359 135.128205,31.534359 C135.965128,31.534359 137.471795,31.4266667 137.932308,31.3938462 L137.932308,26.185641 C137.284103,26.1579487 135.596923,26.0974359 135.392821,26.0974359 M84.4748718,33.9948718 C80.8051282,33.9948718 77.4123077,33.3487179 77.4123077,28.6697436 C77.4123077,23.5774359 82.6605128,23.5774359 85.7969231,23.5774359 C86.1097436,23.5774359 87.5876923,23.6461538 88.0410256,23.665641 C88.0369231,20.8092308 87.9969231,20.1282051 83.854359,20.1282051 C82.2112821,20.1282051 80.3876923,20.4523077 78.7774359,20.7415385 L78.4697436,20.7969231 L78.4697436,17.9764103 L78.6820513,17.9323077 C80.4906589,17.5583343 82.3326205,17.369327 84.1794872,17.3682051 C88.1928205,17.3682051 91.5948718,17.7723077 91.5948718,22.7528205 L91.5948718,33.614359 L91.3497436,33.6420513 C88.5702564,33.9538462 86.3620513,33.9948718 84.4748718,33.9948718 M85.7087179,26.0974359 C82.6841026,26.0974359 80.8133333,26.5425641 80.8133333,28.7579487 C80.8133333,31.3220513 83.2010256,31.534359 85.4451282,31.534359 C86.2861538,31.534359 87.7928205,31.4266667 88.2533333,31.3938462 L88.2533333,26.185641 C87.6,26.1579487 85.9138462,26.0974359 85.7097436,26.0974359" id="Shape" fill="#231F20" fill-rule="nonzero"></path>
            <g id="Clipped" transform="translate(143.589744, 16.410256)">
                <mask id="mask-2" fill="white">
                    <use xlink:href="#path-1"></use>
                </mask>
                <g id="a"></g>
                <path d="M11.7866667,24.4389744 L11.7866667,17.5076923 C10.4051282,17.7005128 9.67179487,17.7005128 9.07897436,17.7005128 C7.67589744,17.7005128 6.11794872,17.3958974 4.91179487,16.8871795 C2.21128205,15.7641026 0.601025641,12.9128205 0.601025641,9.25435897 C0.601025641,7.42871795 1.04615385,4.09025641 4.0225641,2.29128205 C5.51692308,1.39897436 7.28,1.0174359 9.93230769,1.0174359 C10.8810256,1.0174359 12.1630769,1.08923077 13.4010256,1.16102564 L15.4123077,1.26564103 L15.4123077,22.8328205 L11.7866667,24.4389744 Z M9.66769231,3.80615342 C6.06974359,3.80512821 4.24615385,5.64102564 4.24615385,9.25435897 C4.24615385,13.9066667 6.96615385,14.8841026 9.25333333,14.8841026 C9.81025641,14.8841026 10.4358974,14.8841026 11.8215385,14.7076923 L11.8215385,3.90666667 C10.7364103,3.83487179 10.2348718,3.80615342 9.66666667,3.80615342 L9.66769231,3.80615342 Z" id="Shape" fill="#231F20" fill-rule="nonzero" mask="url(#mask-2)"></path>
            </g>
            <g id="Clipped" transform="translate(26.666667, 0.000000)">
                <mask id="mask-4" fill="white">
                    <use xlink:href="#path-3"></use>
                </mask>
                <g id="c"></g>
                <path d="M14.3712821,0.0164102564 L2.66051282,32.1907692 C2.36505321,32.9991056 1.63368805,33.5675468 0.777435897,33.654359 L0.777435897,33.6697436 L13.1569231,33.6697436 C14.1261538,33.6697436 14.9558974,33.0533333 15.2646154,32.1917949 L26.9794872,0.0164102564 L14.3712821,0.0164102564 Z" id="Path" fill="#0996C7" fill-rule="nonzero" mask="url(#mask-4)"></path>
            </g>
            <path d="M26.4338462,33.1815385 C27.1517949,33.1815385 27.7805128,32.8246154 28.1651282,32.2841026 C28.2051282,32.2276923 28.345641,32.0307692 28.4451282,31.7630769 L32.7405128,19.9558974 L30.2276923,13.0605128 C29.9296298,12.3494473 29.2695001,11.8558619 28.5031675,11.7710689 C27.736835,11.686276 26.9847664,12.0236048 26.5384615,12.6523077 C26.4974359,12.7087179 26.3302564,12.96 26.2584615,13.1733333 L21.9630769,24.9764103 L24.4871795,31.8994872 C24.821838,32.6772238 25.5871641,33.1812584 26.4338462,33.1815385" id="Path" fill="#0996C7" fill-rule="nonzero"></path>
            <g id="Clipped" transform="translate(0.000000, 10.256410)">
                <mask id="mask-6" fill="white">
                    <use xlink:href="#path-5"></use>
                </mask>
                <g id="e"></g>
                <path d="M27.3517949,1.00923077 L14.8358974,1.00923077 C13.8666667,1.00923077 13.0369231,1.6225641 12.7241026,2.48820513 L1.01333333,34.6625641 L13.6215385,34.6625641 L25.3333333,2.48923077 C25.644112,1.63309447 26.4417304,1.04987651 27.3517949,1.01333333 L27.3517949,1.00923077 Z" id="Path" fill="#0996C7" fill-rule="nonzero" mask="url(#mask-6)"></path>
            </g>
        </g>
    </g>
</svg>