<?xml version="1.0" encoding="UTF-8"?>
<svg width="200px" height="200px" viewBox="0 0 200 200" version="1.1" xmlns="http://www.w3.org/2000/svg" xmlns:xlink="http://www.w3.org/1999/xlink">
    <title>nyse</title>
    <defs>
        <polygon id="path-1" points="0.0181530954 0.00812346896 11.4463786 0.00812346896 11.4463786 57.2165459 0.0181530954 57.2165459 0.0181530954 0.00812346896"></polygon>
        <linearGradient x1="49.9988059%" y1="99.9987091%" x2="49.9987841%" y2="-0.00129088891%" id="linearGradient-3">
            <stop stop-color="#B5E7F9" offset="0%"></stop>
            <stop stop-color="#A3E1F7" offset="10%"></stop>
            <stop stop-color="#8BDAF4" offset="20%"></stop>
            <stop stop-color="#6ED0F0" offset="30%"></stop>
            <stop stop-color="#55C7EE" offset="40%"></stop>
            <stop stop-color="#4CB8E6" offset="50%"></stop>
            <stop stop-color="#439ED6" offset="60%"></stop>
            <stop stop-color="#3B8AC5" offset="70%"></stop>
            <stop stop-color="#3475B6" offset="80%"></stop>
            <stop stop-color="#3063A8" offset="90%"></stop>
            <stop stop-color="#2B579E" offset="100%"></stop>
        </linearGradient>
        <polygon id="path-4" points="0.000737630856 0.00812346896 11.4294057 0.00812346896 11.4294057 57.2165459 0.000737630856 57.2165459 0.000737630856 0.00812346896"></polygon>
        <linearGradient x1="49.9998386%" y1="99.9987091%" x2="49.9998168%" y2="-0.00129088891%" id="linearGradient-6">
            <stop stop-color="#B5E7F9" offset="0%"></stop>
            <stop stop-color="#A3E1F7" offset="10%"></stop>
            <stop stop-color="#8BDAF4" offset="20%"></stop>
            <stop stop-color="#6ED0F0" offset="30%"></stop>
            <stop stop-color="#55C7EE" offset="40%"></stop>
            <stop stop-color="#4CB8E6" offset="50%"></stop>
            <stop stop-color="#439ED6" offset="60%"></stop>
            <stop stop-color="#3B8AC5" offset="70%"></stop>
            <stop stop-color="#3475B6" offset="80%"></stop>
            <stop stop-color="#3063A8" offset="90%"></stop>
            <stop stop-color="#2B579E" offset="100%"></stop>
        </linearGradient>
        <polygon id="path-7" points="0.0175924959 0.00812346896 11.445818 0.00812346896 11.445818 57.2165459 0.0175924959 57.2165459 0.0175924959 0.00812346896"></polygon>
        <linearGradient x1="49.9972569%" y1="99.9987091%" x2="49.997235%" y2="-0.00129088891%" id="linearGradient-9">
            <stop stop-color="#B5E7F9" offset="0%"></stop>
            <stop stop-color="#A3E1F7" offset="10%"></stop>
            <stop stop-color="#8BDAF4" offset="20%"></stop>
            <stop stop-color="#6ED0F0" offset="30%"></stop>
            <stop stop-color="#55C7EE" offset="40%"></stop>
            <stop stop-color="#4CB8E6" offset="50%"></stop>
            <stop stop-color="#439ED6" offset="60%"></stop>
            <stop stop-color="#3B8AC5" offset="70%"></stop>
            <stop stop-color="#3475B6" offset="80%"></stop>
            <stop stop-color="#3063A8" offset="90%"></stop>
            <stop stop-color="#2B579E" offset="100%"></stop>
        </linearGradient>
        <polygon id="path-10" points="0.00295052342 0.00812346896 11.431176 0.00812346896 11.431176 57.2165459 0.00295052342 57.2165459 0.00295052342 0.00812346896"></polygon>
        <linearGradient x1="49.9995159%" y1="99.9987091%" x2="49.9994941%" y2="-0.00129088891%" id="linearGradient-12">
            <stop stop-color="#B5E7F9" offset="0%"></stop>
            <stop stop-color="#A3E1F7" offset="10%"></stop>
            <stop stop-color="#8BDAF4" offset="20%"></stop>
            <stop stop-color="#6ED0F0" offset="30%"></stop>
            <stop stop-color="#55C7EE" offset="40%"></stop>
            <stop stop-color="#4CB8E6" offset="50%"></stop>
            <stop stop-color="#439ED6" offset="60%"></stop>
            <stop stop-color="#3B8AC5" offset="70%"></stop>
            <stop stop-color="#3475B6" offset="80%"></stop>
            <stop stop-color="#3063A8" offset="90%"></stop>
            <stop stop-color="#2B579E" offset="100%"></stop>
        </linearGradient>
        <polygon id="path-13" points="0.00295052342 0.00812346896 11.431176 0.00812346896 11.431176 57.2165459 0.00295052342 57.2165459 0.00295052342 0.00812346896"></polygon>
        <linearGradient x1="49.9962887%" y1="99.9987091%" x2="49.9962668%" y2="-0.00129088891%" id="linearGradient-15">
            <stop stop-color="#B5E7F9" offset="0%"></stop>
            <stop stop-color="#A3E1F7" offset="10%"></stop>
            <stop stop-color="#8BDAF4" offset="20%"></stop>
            <stop stop-color="#6ED0F0" offset="30%"></stop>
            <stop stop-color="#55C7EE" offset="40%"></stop>
            <stop stop-color="#4CB8E6" offset="50%"></stop>
            <stop stop-color="#439ED6" offset="60%"></stop>
            <stop stop-color="#3B8AC5" offset="70%"></stop>
            <stop stop-color="#3475B6" offset="80%"></stop>
            <stop stop-color="#3063A8" offset="90%"></stop>
            <stop stop-color="#2B579E" offset="100%"></stop>
        </linearGradient>
        <polygon id="path-16" points="0.0221289257 0.00812346896 11.4505019 0.00812346896 11.4505019 57.2165459 0.0221289257 57.2165459 0.0221289257 0.00812346896"></polygon>
        <linearGradient x1="49.9956433%" y1="99.9987091%" x2="49.9956214%" y2="-0.00129088891%" id="linearGradient-18">
            <stop stop-color="#B5E7F9" offset="0%"></stop>
            <stop stop-color="#A3E1F7" offset="10%"></stop>
            <stop stop-color="#8BDAF4" offset="20%"></stop>
            <stop stop-color="#6ED0F0" offset="30%"></stop>
            <stop stop-color="#55C7EE" offset="40%"></stop>
            <stop stop-color="#4CB8E6" offset="50%"></stop>
            <stop stop-color="#439ED6" offset="60%"></stop>
            <stop stop-color="#3B8AC5" offset="70%"></stop>
            <stop stop-color="#3475B6" offset="80%"></stop>
            <stop stop-color="#3063A8" offset="90%"></stop>
            <stop stop-color="#2B579E" offset="100%"></stop>
        </linearGradient>
    </defs>
    <g id="nyse" stroke="none" stroke-width="1" fill="none" fill-rule="evenodd">
        <g transform="translate(55.000000, 54.000000)" id="g10">
            <g transform="translate(45.374693, 46.114293) scale(-1, 1) rotate(-180.000000) translate(-45.374693, -46.114293) translate(0.824693, 0.664293)">
                <g id="g12" transform="translate(0.000000, 0.147699)">
                    <polyline id="path86" fill="#100F0D" fill-rule="nonzero" points="5.1200433 0.279151933 0.0181530954 0.279151933 0.0181530954 26.0227943 5.12033835 26.0227943 15.5278671 9.65252737 15.5278671 26.0227943 20.6300229 26.0227943 20.6300229 0.279151933 15.8596535 0.279151933 5.1200433 17.2114152 5.1200433 0.279151933"></polyline>
                    <polyline id="path88" fill="#100F0D" fill-rule="nonzero" points="24.3034983 26.0227943 30.526521 26.0227943 36.2405416 16.5984626 41.9807849 26.0227943 48.30892 26.0227943 38.7927443 11.3872572 38.7927443 0.279151933 33.6905517 0.279151933 33.6905517 11.516125 24.3034983 26.0227943"></polyline>
                    <path d="M64.1307331,18.7593053 L66.7850977,22.9259064 C66.7850977,22.9259064 63.7434769,26.2410202 58.1396953,26.2410202 C52.4547742,26.2410202 49.8291772,22.4100661 49.8291772,18.6175139 C49.8291772,14.8175766 53.4907768,12.2834236 55.9644219,11.3086073 C59.7525251,9.97266589 62.4301251,9.31577265 62.4301251,7.40786519 C62.4301251,5.96004148 60.9633462,4.8796201 58.8998239,4.8796201 C55.0294748,4.8796201 51.9679379,8.04001878 51.9679379,8.04001878 L49.198134,3.71870254 C49.198134,3.71870254 52.892927,0.00369248589 58.8098329,0.00369248589 C63.3923646,0.00369248589 67.4806836,3.20064677 67.4806836,7.92407472 C67.4806836,12.1778185 63.8699806,14.52107 60.7169775,15.4209288 C57.9840551,16.2181365 55.0988121,16.9821119 55.0988121,18.9143897 C55.0988121,20.1761122 56.1536242,21.3392452 57.9977013,21.3392452 C61.1248873,21.3392452 64.1307331,18.7593053 64.1307331,18.7593053 L64.1307331,18.7593053" id="path90" fill="#100F0D" fill-rule="nonzero"></path>
                    <polyline id="path92" fill="#100F0D" fill-rule="nonzero" points="72.0569454 0.279151933 72.0569454 26.0227943 88.7912078 26.0227943 88.7912078 21.5283005 77.1591381 21.5283005 77.1591381 15.3984047 87.1588308 15.3984047 87.1588308 10.9031723 77.1591381 10.9031723 77.1591381 4.77401501 88.7912078 4.77401501 88.7912078 0.279151933 72.0569454 0.279151933"></polyline>
                    <g id="g96-Clipped" transform="translate(0.000000, 31.940003)">
                        <mask id="mask-2" fill="white">
                            <use xlink:href="#path-1"></use>
                        </mask>
                        <g id="path100"></g>
                        <g id="g96" mask="url(#mask-2)" fill="url(#linearGradient-3)" fill-rule="nonzero">
                            <polygon id="path126" points="0.0181530954 0.00812346896 11.4463786 0.00812346896 11.4463786 57.2165459 0.0181530954 57.2165459 0.0181530954 0.00812346896"></polygon>
                        </g>
                    </g>
                    <g id="g130-Clipped" transform="translate(15.527130, 31.940003)">
                        <mask id="mask-5" fill="white">
                            <use xlink:href="#path-4"></use>
                        </mask>
                        <g id="path134"></g>
                        <g id="g130" mask="url(#mask-5)" fill="url(#linearGradient-6)" fill-rule="nonzero">
                            <polygon id="path160" points="0.000737630856 0.00812346896 11.4294057 0.00812346896 11.4294057 57.2165459 0.000737630856 57.2165459 0.000737630856 0.00812346896"></polygon>
                        </g>
                    </g>
                    <g id="g164-Clipped" transform="translate(30.943614, 31.940003)">
                        <mask id="mask-8" fill="white">
                            <use xlink:href="#path-7"></use>
                        </mask>
                        <g id="path168"></g>
                        <g id="g164" mask="url(#mask-8)" fill="url(#linearGradient-9)" fill-rule="nonzero">
                            <polygon id="path194" points="0.0175924959 0.00812346896 11.445818 0.00812346896 11.445818 57.2165459 0.0175924959 57.2165459 0.0175924959 0.00812346896"></polygon>
                        </g>
                    </g>
                    <g id="g198-Clipped" transform="translate(46.544507, 31.940003)">
                        <mask id="mask-11" fill="white">
                            <use xlink:href="#path-10"></use>
                        </mask>
                        <g id="path202"></g>
                        <g id="g198" mask="url(#mask-11)" fill="url(#linearGradient-12)" fill-rule="nonzero">
                            <polygon id="path228" points="0.00295052342 0.00812346896 11.431176 0.00812346896 11.431176 57.2165459 0.00295052342 57.2165459 0.00295052342 0.00812346896"></polygon>
                        </g>
                    </g>
                    <g id="g232-Clipped" transform="translate(61.850347, 31.940003)">
                        <mask id="mask-14" fill="white">
                            <use xlink:href="#path-13"></use>
                        </mask>
                        <g id="path236"></g>
                        <g id="g232" mask="url(#mask-14)" fill="url(#linearGradient-15)" fill-rule="nonzero">
                            <polygon id="path262" points="0.00295052342 0.00812346896 11.431176 0.00812346896 11.431176 57.2165459 0.00295052342 57.2165459 0.00295052342 0.00812346896"></polygon>
                        </g>
                    </g>
                    <g id="g266-Clipped" transform="translate(77.340595, 31.940003)">
                        <mask id="mask-17" fill="white">
                            <use xlink:href="#path-16"></use>
                        </mask>
                        <g id="path270"></g>
                        <g id="g266" mask="url(#mask-17)" fill="url(#linearGradient-18)" fill-rule="nonzero">
                            <polygon id="path296" points="0.0221289257 0.00812346896 11.4505019 0.00812346896 11.4505019 57.2165459 0.0221289257 57.2165459 0.0221289257 0.00812346896"></polygon>
                        </g>
                    </g>
                </g>
            </g>
        </g>
    </g>
</svg>