<?xml version="1.0" encoding="UTF-8"?>
<svg width="200px" height="200px" viewBox="0 0 200 200" version="1.1" xmlns="http://www.w3.org/2000/svg" xmlns:xlink="http://www.w3.org/1999/xlink">
    <title>nyse</title>
    <defs>
        <polygon id="path-1" points="0.0197746137 0.00884909473 12.468822 0.00884909473 12.468822 62.327392 0.0197746137 62.327392 0.0197746137 0.00884909473"></polygon>
        <linearGradient x1="49.9988059%" y1="99.9987091%" x2="49.9987841%" y2="-0.00129088891%" id="linearGradient-3">
            <stop stop-color="#B5E7F9" offset="0%"></stop>
            <stop stop-color="#A3E1F7" offset="10%"></stop>
            <stop stop-color="#8BDAF4" offset="20%"></stop>
            <stop stop-color="#6ED0F0" offset="30%"></stop>
            <stop stop-color="#55C7EE" offset="40%"></stop>
            <stop stop-color="#4CB8E6" offset="50%"></stop>
            <stop stop-color="#439ED6" offset="60%"></stop>
            <stop stop-color="#3B8AC5" offset="70%"></stop>
            <stop stop-color="#3475B6" offset="80%"></stop>
            <stop stop-color="#3063A8" offset="90%"></stop>
            <stop stop-color="#2B579E" offset="100%"></stop>
        </linearGradient>
        <polygon id="path-4" points="0.000803519451 0.00884909473 12.450333 0.00884909473 12.450333 62.327392 0.000803519451 62.327392 0.000803519451 0.00884909473"></polygon>
        <linearGradient x1="49.9998386%" y1="99.9987091%" x2="49.9998168%" y2="-0.00129088891%" id="linearGradient-6">
            <stop stop-color="#B5E7F9" offset="0%"></stop>
            <stop stop-color="#A3E1F7" offset="10%"></stop>
            <stop stop-color="#8BDAF4" offset="20%"></stop>
            <stop stop-color="#6ED0F0" offset="30%"></stop>
            <stop stop-color="#55C7EE" offset="40%"></stop>
            <stop stop-color="#4CB8E6" offset="50%"></stop>
            <stop stop-color="#439ED6" offset="60%"></stop>
            <stop stop-color="#3B8AC5" offset="70%"></stop>
            <stop stop-color="#3475B6" offset="80%"></stop>
            <stop stop-color="#3063A8" offset="90%"></stop>
            <stop stop-color="#2B579E" offset="100%"></stop>
        </linearGradient>
        <polygon id="path-7" points="0.0191639389 0.00884909473 12.4682113 0.00884909473 12.4682113 62.327392 0.0191639389 62.327392 0.0191639389 0.00884909473"></polygon>
        <linearGradient x1="49.9972569%" y1="99.9987091%" x2="49.997235%" y2="-0.00129088891%" id="linearGradient-9">
            <stop stop-color="#B5E7F9" offset="0%"></stop>
            <stop stop-color="#A3E1F7" offset="10%"></stop>
            <stop stop-color="#8BDAF4" offset="20%"></stop>
            <stop stop-color="#6ED0F0" offset="30%"></stop>
            <stop stop-color="#55C7EE" offset="40%"></stop>
            <stop stop-color="#4CB8E6" offset="50%"></stop>
            <stop stop-color="#439ED6" offset="60%"></stop>
            <stop stop-color="#3B8AC5" offset="70%"></stop>
            <stop stop-color="#3475B6" offset="80%"></stop>
            <stop stop-color="#3063A8" offset="90%"></stop>
            <stop stop-color="#2B579E" offset="100%"></stop>
        </linearGradient>
        <polygon id="path-10" points="0.0032140778 0.00884909473 12.4522615 0.00884909473 12.4522615 62.327392 0.0032140778 62.327392 0.0032140778 0.00884909473"></polygon>
        <linearGradient x1="49.9995159%" y1="99.9987091%" x2="49.9994941%" y2="-0.00129088891%" id="linearGradient-12">
            <stop stop-color="#B5E7F9" offset="0%"></stop>
            <stop stop-color="#A3E1F7" offset="10%"></stop>
            <stop stop-color="#8BDAF4" offset="20%"></stop>
            <stop stop-color="#6ED0F0" offset="30%"></stop>
            <stop stop-color="#55C7EE" offset="40%"></stop>
            <stop stop-color="#4CB8E6" offset="50%"></stop>
            <stop stop-color="#439ED6" offset="60%"></stop>
            <stop stop-color="#3B8AC5" offset="70%"></stop>
            <stop stop-color="#3475B6" offset="80%"></stop>
            <stop stop-color="#3063A8" offset="90%"></stop>
            <stop stop-color="#2B579E" offset="100%"></stop>
        </linearGradient>
        <polygon id="path-13" points="0.0032140778 0.00884909473 12.4522615 0.00884909473 12.4522615 62.327392 0.0032140778 62.327392 0.0032140778 0.00884909473"></polygon>
        <linearGradient x1="49.9962887%" y1="99.9987091%" x2="49.9962668%" y2="-0.00129088891%" id="linearGradient-15">
            <stop stop-color="#B5E7F9" offset="0%"></stop>
            <stop stop-color="#A3E1F7" offset="10%"></stop>
            <stop stop-color="#8BDAF4" offset="20%"></stop>
            <stop stop-color="#6ED0F0" offset="30%"></stop>
            <stop stop-color="#55C7EE" offset="40%"></stop>
            <stop stop-color="#4CB8E6" offset="50%"></stop>
            <stop stop-color="#439ED6" offset="60%"></stop>
            <stop stop-color="#3B8AC5" offset="70%"></stop>
            <stop stop-color="#3475B6" offset="80%"></stop>
            <stop stop-color="#3063A8" offset="90%"></stop>
            <stop stop-color="#2B579E" offset="100%"></stop>
        </linearGradient>
        <polygon id="path-16" points="0.0241055835 0.00884909473 12.4733137 0.00884909473 12.4733137 62.327392 0.0241055835 62.327392 0.0241055835 0.00884909473"></polygon>
        <linearGradient x1="49.9956433%" y1="99.9987091%" x2="49.9956214%" y2="-0.00129088891%" id="linearGradient-18">
            <stop stop-color="#B5E7F9" offset="0%"></stop>
            <stop stop-color="#A3E1F7" offset="10%"></stop>
            <stop stop-color="#8BDAF4" offset="20%"></stop>
            <stop stop-color="#6ED0F0" offset="30%"></stop>
            <stop stop-color="#55C7EE" offset="40%"></stop>
            <stop stop-color="#4CB8E6" offset="50%"></stop>
            <stop stop-color="#439ED6" offset="60%"></stop>
            <stop stop-color="#3B8AC5" offset="70%"></stop>
            <stop stop-color="#3475B6" offset="80%"></stop>
            <stop stop-color="#3063A8" offset="90%"></stop>
            <stop stop-color="#2B579E" offset="100%"></stop>
        </linearGradient>
    </defs>
    <g id="nyse" stroke="none" stroke-width="1" fill="none" fill-rule="evenodd">
        <g transform="translate(51.000000, 50.000000)" id="g10">
            <g transform="translate(49.427770, 50.233435) scale(-1, 1) rotate(-180.000000) translate(-49.427770, -50.233435) translate(0.898358, 0.723631)">
                <g id="g12" transform="translate(0.000000, 0.160893)">
                    <polyline id="path86" fill="#100F0D" fill-rule="nonzero" points="5.57738921 0.304087073 0.0197746137 0.304087073 0.0197746137 28.3472705 5.57771062 28.3472705 16.914888 10.5147357 16.914888 28.3472705 22.4727918 28.3472705 22.4727918 0.304087073 17.276311 0.304087073 5.57738921 18.7488183 5.57738921 0.304087073"></polyline>
                    <polyline id="path88" fill="#100F0D" fill-rule="nonzero" points="26.474399 28.3472705 33.2532909 28.3472705 39.4777141 18.0811139 45.7307025 28.3472705 52.6240959 28.3472705 42.2578914 12.4044196 42.2578914 0.304087073 36.6999474 0.304087073 36.6999474 12.5447985 26.474399 28.3472705"></polyline>
                    <path d="M69.8591863,20.4349731 L72.7506511,24.9737542 C72.7506511,24.9737542 69.4373386,28.5849894 63.3330014,28.5849894 C57.140277,28.5849894 54.2801495,24.4118367 54.2801495,20.2805162 C54.2801495,16.141151 58.26882,13.3806357 60.9634225,12.3187443 C65.0898966,10.8634705 68.0066723,10.1479005 68.0066723,8.06956993 C68.0066723,6.49241991 66.4088738,5.31549031 64.1610282,5.31549031 C59.9449616,5.31549031 56.6099541,8.75819039 56.6099541,8.75819039 L53.5927386,4.05087423 C53.5927386,4.05087423 57.6175675,0.00402231578 64.0629988,0.00402231578 C69.0548634,0.00402231578 73.5083699,3.48654332 73.5083699,8.63188967 C73.5083699,13.2655975 69.5751422,15.8181591 66.1404983,16.7983974 C63.1634588,17.6668154 60.0204924,18.4990325 60.0204924,20.6039104 C60.0204924,21.9783357 61.1695252,23.2453651 63.1783239,23.2453651 C66.5848446,23.2453651 69.8591863,20.4349731 69.8591863,20.4349731 L69.8591863,20.4349731" id="path90" fill="#100F0D" fill-rule="nonzero"></path>
                    <polyline id="path92" fill="#100F0D" fill-rule="nonzero" points="78.4934046 0.304087073 78.4934046 28.3472705 96.7224486 28.3472705 96.7224486 23.4513077 84.0513487 23.4513077 84.0513487 16.7738613 94.9442601 16.7738613 94.9442601 11.877094 84.0513487 11.877094 84.0513487 5.20045208 96.7224486 5.20045208 96.7224486 0.304087073 78.4934046 0.304087073"></polyline>
                    <g id="g96-Clipped" transform="translate(0.000000, 34.793032)">
                        <mask id="mask-2" fill="white">
                            <use xlink:href="#path-1"></use>
                        </mask>
                        <g id="path100"></g>
                        <g id="g96" mask="url(#mask-2)" fill="url(#linearGradient-3)" fill-rule="nonzero">
                            <polygon id="path126" points="0.0197746137 0.00884909473 12.468822 0.00884909473 12.468822 62.327392 0.0197746137 62.327392 0.0197746137 0.00884909473"></polygon>
                        </g>
                    </g>
                    <g id="g130-Clipped" transform="translate(16.914084, 34.793032)">
                        <mask id="mask-5" fill="white">
                            <use xlink:href="#path-4"></use>
                        </mask>
                        <g id="path134"></g>
                        <g id="g130" mask="url(#mask-5)" fill="url(#linearGradient-6)" fill-rule="nonzero">
                            <polygon id="path160" points="0.000803519451 0.00884909473 12.450333 0.00884909473 12.450333 62.327392 0.000803519451 62.327392 0.000803519451 0.00884909473"></polygon>
                        </g>
                    </g>
                    <g id="g164-Clipped" transform="translate(33.707641, 34.793032)">
                        <mask id="mask-8" fill="white">
                            <use xlink:href="#path-7"></use>
                        </mask>
                        <g id="path168"></g>
                        <g id="g164" mask="url(#mask-8)" fill="url(#linearGradient-9)" fill-rule="nonzero">
                            <polygon id="path194" points="0.0191639389 0.00884909473 12.4682113 0.00884909473 12.4682113 62.327392 0.0191639389 62.327392 0.0191639389 0.00884909473"></polygon>
                        </g>
                    </g>
                    <g id="g198-Clipped" transform="translate(50.702077, 34.793032)">
                        <mask id="mask-11" fill="white">
                            <use xlink:href="#path-10"></use>
                        </mask>
                        <g id="path202"></g>
                        <g id="g198" mask="url(#mask-11)" fill="url(#linearGradient-12)" fill-rule="nonzero">
                            <polygon id="path228" points="0.0032140778 0.00884909473 12.4522615 0.00884909473 12.4522615 62.327392 0.0032140778 62.327392 0.0032140778 0.00884909473"></polygon>
                        </g>
                    </g>
                    <g id="g232-Clipped" transform="translate(67.375106, 34.793032)">
                        <mask id="mask-14" fill="white">
                            <use xlink:href="#path-13"></use>
                        </mask>
                        <g id="path236"></g>
                        <g id="g232" mask="url(#mask-14)" fill="url(#linearGradient-15)" fill-rule="nonzero">
                            <polygon id="path262" points="0.0032140778 0.00884909473 12.4522615 0.00884909473 12.4522615 62.327392 0.0032140778 62.327392 0.0032140778 0.00884909473"></polygon>
                        </g>
                    </g>
                    <g id="g266-Clipped" transform="translate(84.249014, 34.793032)">
                        <mask id="mask-17" fill="white">
                            <use xlink:href="#path-16"></use>
                        </mask>
                        <g id="path270"></g>
                        <g id="g266" mask="url(#mask-17)" fill="url(#linearGradient-18)" fill-rule="nonzero">
                            <polygon id="path296" points="0.0241055835 0.00884909473 12.4733137 0.00884909473 12.4733137 62.327392 0.0241055835 62.327392 0.0241055835 0.00884909473"></polygon>
                        </g>
                    </g>
                </g>
            </g>
        </g>
    </g>
</svg>