<?xml version="1.0" encoding="UTF-8"?>
<svg width="200px" height="200px" viewBox="0 0 200 200" version="1.1" xmlns="http://www.w3.org/2000/svg" xmlns:xlink="http://www.w3.org/1999/xlink">
    <title>Artboard</title>
    <g id="Artboard" stroke="none" stroke-width="1" fill="none" fill-rule="evenodd">
        <g id="opensea" transform="translate(55.000000, 55.000000)" fill="#2081E2" fill-rule="nonzero">
            <path d="M45,0 C69.8566,0 90,20.1486 90,45 C90,69.8513999 69.8513999,90 45,90 C20.1486,90 0,69.8513999 0,45 C0,20.1486 20.1486,0 45,0 Z M46.4089,18 C45.0360864,18 43.9190473,19.0982784 43.8678345,20.4720183 L43.866,20.5706 L43.866,23.511 L43.6025,23.437 L42.8859,23.2336 L42.234,23.0533 L42.226475,23.051 L42.226475,23.051 L42.2155,23.0487 L42.2016,23.0487 L37.2546,21.7079 C37.050975,21.6515562 36.8756508,21.8552809 36.9459918,22.0447727 L36.9634,22.0824 L37.754,23.5434 C37.8279,23.7283 37.9343,23.9132 38.0268,24.112 C38.1562,24.371 38.2857,24.6437 38.4105,24.9165 C38.5214,25.1569 38.6324,25.3927 38.7619,25.6516 C39.0161,26.2203 39.2935,26.8213 39.5663,27.4825 C39.7512,27.9217 39.9362,28.3609 40.098,28.8186 C40.5418,29.9698 40.9626,31.1996 41.3278,32.4618 C41.424925,32.76345 41.5011812,33.05475 41.5800672,33.351225 L41.6607,33.65 L41.7115,33.8719 C41.8595,34.4591 41.9889,35.0416 42.0814,35.6288 C42.1554,36.031 42.2247,36.4147 42.2617,36.8031 C42.3172,37.2423 42.3727,37.6815 42.3912,38.1207 C42.4282,38.523 42.4467,38.9437 42.4467,39.3459 C42.4467,40.3723 42.3542,41.3617 42.1369,42.2956 C42.0629,42.5684 41.9889,42.8597 41.8965,43.1371 C41.804,43.4653 41.6746,43.7936 41.5497,44.1449 C41.4758,44.3438 41.4018,44.5472 41.3093,44.746 C40.8516,45.8463002 40.2829,46.9421001 39.6958,47.9683998 C38.8358,49.4895002 37.9713,50.8257 37.3656,51.6856 C37.2824,51.8103999 37.2038,51.9214 37.1345,52.0276999 C36.95438,52.2824899 37.1206395,52.6373676 37.4191062,52.6722183 L37.4673,52.6750002 L43.866,52.6750002 L43.866,57.7283 L37.3934,57.7283 C35.655,57.7283 34.0461,56.7435001 33.2693,55.1669998 C32.8671,54.3763998 32.7099,53.5072001 32.8024,52.6564998 C32.82396,52.4191531 32.6602346,52.1939151 32.4278135,52.1649382 L32.377,52.1618 L19.3023,52.1618 C19.0973769,52.1618 18.9279852,52.3154286 18.9031375,52.5135938 L18.9,52.564 L18.9,52.8322 C18.9,61.089295 25.5021496,67.7966557 33.7000941,67.9299772 L33.949,67.932 L57.4030998,67.932 C61.051419,67.932 63.3913663,65.1731287 65.484247,61.9839675 L65.6893449,61.6689738 C65.8255954,61.4581623 65.960933,61.2458289 66.0956576,61.0326301 L66.297321,60.7122653 L66.6987858,60.0696108 C67.3999605,58.9444443 68.0965979,57.8225714 68.832,56.799 C70.1218998,55.0052001 73.2241998,53.5811998 74.1303999,53.1927999 C74.2618665,53.1352885 74.3568296,53.0119606 74.3763096,52.8683962 L74.3800001,52.8137001 L74.3800001,49.9149 C74.3800001,49.6634625 74.1524512,49.477064 73.9144706,49.5157207 L73.8667998,49.5265 L60.1771001,53.4841002 C60.1032002,53.5026001 60.0384002,53.5441999 59.9876001,53.5996998 C58.4850002,55.2594001 57.2135999,56.3598 56.9223,56.6140999 C56.1121097,57.3009574 55.1174292,57.6901274 54.0660209,57.7256337 L53.9078999,57.7283 L48.9517002,57.7283 L48.9517002,52.6750002 L52.8908,52.6750002 C52.97216,52.6750002 53.0505761,52.6513199 53.1165249,52.6087215 L53.1635,52.5733002 L53.6720999,52.1063001 C53.8893999,51.9075 54.1483002,51.6671001 54.4581,51.3572998 C54.643,51.1723998 54.8464,50.9736001 55.0452001,50.7517002 C55.2487001,50.5529001 55.4475002,50.3310002 55.6324002,50.1137001 C55.9422,49.7808 56.2381002,49.4339998 56.5478001,49.0688001 C56.7697,48.8284002 56.9732,48.5555998 57.1720001,48.2827999 C57.3939,48.0239001 57.6112001,47.7327001 57.8146,47.4552999 C57.9626001,47.2379998 58.1290002,47.016 58.2908,46.7802 C58.4388,46.5583 58.5867001,46.3225001 58.7115,46.1006001 C59.0999,45.4995999 59.4282002,44.8569 59.7056,44.2143 C59.8489002,43.9045 59.9598,43.5763 60.0708001,43.2619 C60.1817999,42.9336 60.2742001,42.6239 60.3436001,42.2956 C60.5100002,41.5235 60.5470001,40.756 60.4729998,39.9886 C60.4581998,39.79628 60.4433997,39.606904 60.4097073,39.4251824 L60.3806,39.2904 L60.3806,39.2535 C60.3621,39.0963 60.3251001,38.9206 60.2742001,38.7588 C60.1078001,38.0098 59.8489002,37.2608 59.5206,36.5257 C59.4097002,36.2529 59.2802001,35.9755 59.1553998,35.7212 C58.8595001,35.1711 58.5496998,34.6209 58.1984001,34.0892 C58.0734999,33.8904 57.9256002,33.687 57.7961001,33.4882 C57.5233002,33.0674 57.209,32.6652 56.9177001,32.2769 C56.6958002,31.9856 56.4415002,31.6943 56.2010999,31.3984 C55.9607,31.1071 55.7249,30.8297 55.4845001,30.557 C54.6245001,29.5861 53.7229998,28.7076 52.9185001,27.9587 C52.7706,27.8107 52.6086999,27.6628 52.4422998,27.5194 C51.8180998,26.9508 51.2495001,26.4561 50.7733002,26.0723 C50.5328999,25.8874 50.3341002,25.7071 50.1490998,25.5591 C49.9132998,25.3835 49.7284002,25.2401 49.599,25.143 C49.5743332,25.1245333 49.5476222,25.1101556 49.5202,25.0985037 L49.4787002,25.0829 L48.9517002,24.935 L48.9517002,20.5706 C48.9517002,19.8586 48.6649998,19.2206 48.2072998,18.7536 C47.7495999,18.2866 47.1115998,18 46.4089,18 Z M34.8043,27.9447 C34.6749,27.6535 34.2726,27.6257 34.1016,27.8939 L34.1016,27.8939 L22.3953,46.2069 L22.2011,46.512 C22.0301,46.7756001 22.2196,47.1270002 22.5432,47.1270002 L22.5432,47.1270002 L34.5824,47.1270002 C34.7165,47.1270002 34.8413,47.0622001 34.9153,46.9512999 C35.0725,46.7109 35.2204,46.4611999 35.3545,46.2069 C36.3948,44.4593 37.3194,42.5683 37.6569,41.1721 C38.4475,37.7786 36.76,32.3277 34.8043,27.9447 Z" id="Combined-Shape"></path>
        </g>
    </g>
</svg>