<?xml version="1.0" encoding="UTF-8"?>
<svg width="200px" height="200px" viewBox="0 0 200 200" version="1.1" xmlns="http://www.w3.org/2000/svg" xmlns:xlink="http://www.w3.org/1999/xlink">
    <title>Group</title>
    <g id="Page-1" stroke="none" stroke-width="1" fill="none" fill-rule="evenodd">
        <g id="opensea" fill-rule="nonzero">
            <g id="Path">
                <path d="M200,100 C200,155.225333 155.225333,200 100,200 C44.7746667,200 0,155.225333 0,100 C0,44.7746667 44.7746667,0 100,0 C155.236889,0 200,44.7746667 200,100 Z" fill="#2081E2"></path>
                <path d="M49.3357778,103.36 L49.7673333,102.682 L75.7813333,61.9864444 C76.1613333,61.3904444 77.0553333,61.4522222 77.3428889,62.0993333 C81.6888889,71.8393333 85.4388889,83.9524444 83.682,91.4935556 C82.932,94.5962222 80.8773333,98.7984444 78.5655556,102.682 C78.2675556,103.247111 77.9388889,103.802 77.5895556,104.336222 C77.4251111,104.582667 77.1477778,104.726667 76.8497778,104.726667 L50.096,104.726667 C49.3768889,104.726667 48.9557778,103.945778 49.3357778,103.36 Z" fill="#FFFFFF"></path>
                <path d="M165.288889,110.922 L165.288889,117.363778 C165.288889,117.733556 165.062889,118.062444 164.734222,118.206222 C162.720444,119.069333 155.826444,122.233778 152.96,126.22 C145.644889,136.401556 140.055778,150.96 127.562444,150.96 L75.4422222,150.96 C56.9693333,150.96 42,135.939333 42,117.404889 L42,116.808889 C42,116.315778 42.4006667,115.915111 42.894,115.915111 L71.9488889,115.915111 C72.5242222,115.915111 72.9455556,116.449333 72.8942222,117.014444 C72.6886667,118.904889 73.038,120.836444 73.9317778,122.593333 C75.658,126.096667 79.2333333,128.285111 83.0964444,128.285111 L97.48,128.285111 L97.48,117.055556 L83.2606667,117.055556 C82.5313333,117.055556 82.0997778,116.213111 82.5211111,115.617111 C82.6751111,115.380889 82.8497778,115.134222 83.0346667,114.856889 C84.3806667,112.946 86.3017778,109.976667 88.2128889,106.596444 C89.5175556,104.315778 90.7813333,101.880667 91.7984444,99.4355556 C92.004,98.9937778 92.1684444,98.5417778 92.3326667,98.0997778 C92.6102222,97.3191111 92.8977778,96.5895556 93.1033333,95.8602222 C93.3086667,95.2437778 93.4731111,94.5964444 93.6375556,93.9902222 C94.1204444,91.9148889 94.326,89.7162222 94.326,87.4353333 C94.326,86.5415556 94.2848889,85.6066667 94.2026667,84.7126667 C94.1615556,83.7366667 94.0382222,82.7606667 93.9148889,81.7846667 C93.8326667,80.9215556 93.6786667,80.0688889 93.5142222,79.1751111 C93.3086667,77.8702222 93.0211111,76.5757778 92.6922222,75.2708889 L92.5793333,74.7777778 C92.3326667,73.884 92.1273333,73.0311111 91.8395556,72.1373333 C91.028,69.3324444 90.0928889,66.5995556 89.1066667,64.0413333 C88.7471111,63.0242222 88.336,62.0482222 87.9251111,61.0722222 C87.3188889,59.6028889 86.7024444,58.2673333 86.1375556,57.0035556 C85.8497778,56.4282222 85.6031111,55.9042222 85.3566667,55.37 C85.0793333,54.7637778 84.7915556,54.1577778 84.504,53.5822222 C84.2984444,53.1404444 84.062,52.7295556 83.8977778,52.3186667 L82.1408889,49.072 C81.8942222,48.6302222 82.3053333,48.1062222 82.788,48.2397778 L93.7813333,51.2193333 L93.8122222,51.2193333 C93.8326667,51.2193333 93.8431111,51.2295556 93.8533333,51.2295556 L95.302,51.6302222 L96.8944444,52.0822222 L97.48,52.2466667 L97.48,45.7124444 C97.48,42.5582222 100.007556,40 103.130889,40 C104.692444,40 106.110222,40.6368889 107.127333,41.6746667 C108.144444,42.7124444 108.781556,44.1302222 108.781556,45.7124444 L108.781556,55.4111111 L109.952667,55.7397778 C110.045333,55.7706667 110.137778,55.8117778 110.22,55.8733333 C110.507556,56.0891111 110.918444,56.4077778 111.442444,56.798 C111.853556,57.1268889 112.295333,57.5275556 112.829556,57.9384444 C113.887778,58.7913333 115.151333,59.8906667 116.538444,61.1542222 C116.908222,61.4728889 117.268,61.8015556 117.596667,62.1304444 C119.384444,63.7946667 121.387778,65.7468889 123.298889,67.9044444 C123.833111,68.5104444 124.357111,69.1268889 124.891333,69.7742222 C125.425556,70.4317778 125.990667,71.0791111 126.483778,71.7264444 C127.131111,72.5893333 127.829556,73.4831111 128.435778,74.4182222 C128.723556,74.86 129.052222,75.312 129.329778,75.7537778 C130.110444,76.9353333 130.798889,78.158 131.456444,79.3804444 C131.733778,79.9455556 132.021556,80.562 132.268,81.1682222 C132.997556,82.8017778 133.572889,84.4662222 133.942667,86.1306667 C134.055778,86.4902222 134.138,86.8806667 134.179111,87.23 L134.179111,87.312 C134.302222,87.8053333 134.343333,88.3293333 134.384444,88.8635556 C134.548889,90.5688889 134.466667,92.2744444 134.096889,93.9902222 C133.942667,94.7197778 133.737333,95.408 133.490667,96.1375556 C133.244,96.8362222 132.997556,97.5655556 132.679111,98.254 C132.062667,99.682 131.333111,101.110222 130.47,102.445778 C130.192667,102.938889 129.864,103.462889 129.535111,103.956 C129.175556,104.48 128.805778,104.973333 128.476889,105.456222 C128.024889,106.072667 127.542,106.719778 127.048889,107.295111 C126.607111,107.901333 126.154889,108.507556 125.661778,109.041778 C124.973556,109.853333 124.316,110.624 123.627556,111.363778 C123.216667,111.846667 122.774889,112.339778 122.322667,112.781556 C121.880889,113.274667 121.428889,113.716444 121.018,114.127333 C120.329556,114.815778 119.754222,115.35 119.271333,115.791778 L118.141111,116.829556 C117.976889,116.973333 117.761111,117.055556 117.535111,117.055556 L108.781556,117.055556 L108.781556,128.285111 L119.795333,128.285111 C122.261111,128.285111 124.603556,127.411778 126.494,125.809111 C127.141333,125.244 129.966667,122.798667 133.305778,119.110444 C133.418667,118.987111 133.562667,118.894667 133.726889,118.853556 L164.148444,110.058889 C164.713556,109.894444 165.288889,110.326 165.288889,110.922 Z" fill="#FFFFFF"></path>
            </g>
        </g>
    </g>
</svg>