<?xml version="1.0" encoding="UTF-8"?>
<svg width="200px" height="200px" viewBox="0 0 200 200" version="1.1" xmlns="http://www.w3.org/2000/svg" xmlns:xlink="http://www.w3.org/1999/xlink">
    <title>trezor</title>
    <g id="trezor" stroke="none" stroke-width="1" fill="none" fill-rule="evenodd">
        <g transform="translate(20.000000, 79.000000)" fill="#0DA8FF" fill-rule="nonzero">
            <polygon id="path13" points="45.6457218 32.8236278 45.6457218 19.0378035 40.2453988 19.0378035 40.2453988 14.094263 57.083087 14.094263 57.083087 19.0378035 51.735824 19.0378035 51.735824 32.8236278"></polygon>
            <path d="M70.7253876,32.8236278 L67.9544796,26.9342708 L65.7495442,26.9342708 L65.7495442,32.8236278 L59.659442,32.8236278 L59.659442,14.094263 L70.3775502,14.094263 C75.0821984,14.094263 77.6054934,17.0031984 77.6054934,20.5115174 C77.6054934,23.7448899 75.6010067,25.4550579 73.9915218,26.1919149 L77.6290756,32.8181288 L70.7253876,32.8181288 L70.7253876,32.8236278 Z M71.4446446,20.5115174 C71.4446446,19.4942149 70.4777746,19.0543003 69.4637401,19.0543003 L65.7495442,19.0543003 L65.7495442,22.0127261 L69.4637401,22.0127261 C70.4777746,21.9907303 71.4446446,21.5508157 71.4446446,20.5115174 Z" id="path15"></path>
            <polygon id="path17" points="80.8008811 32.8236278 80.8008811 14.094263 96.0290844 14.094263 96.0290844 19.0378035 86.8674011 19.0378035 86.8674011 20.8854449 95.8050535 20.8854449 95.8050535 25.8289854 86.8674011 25.8289854 86.8674011 27.8855862 96.0290844 27.8855862 96.0290844 32.8236278"></polygon>
            <polygon id="path19" points="99.1949943 32.8456235 99.1949943 28.3419976 106.847417 19.0597992 99.1949943 19.0597992 99.1949943 14.1162587 114.865364 14.1162587 114.865364 18.5758931 107.189359 27.9075819 115.089395 27.9075819 115.089395 32.8511224 99.1949943 32.8456235"></polygon>
            <path d="M116.575073,23.491939 C116.575073,17.7400554 121.356363,13.7918217 127.570272,13.7918217 C133.760599,13.7918217 138.565471,17.7180596 138.565471,23.491939 C138.565471,29.2438226 133.784181,33.1700605 127.570272,33.1700605 C121.356363,33.1700605 116.575073,29.2438226 116.575073,23.491939 L116.575073,23.491939 Z M132.375145,23.491939 C132.375145,20.8799459 130.470882,18.8013494 127.54669,18.8013494 C124.622498,18.8013494 122.718235,20.8799459 122.718235,23.491939 C122.718235,26.103932 124.622498,28.1825286 127.54669,28.1825286 C130.494464,28.1825286 132.375145,26.103932 132.375145,23.491939 Z" id="path21"></path>
            <path d="M152.178294,32.8456235 L149.407386,26.9562666 L147.202451,26.9562666 L147.202451,32.8456235 L141.112348,32.8456235 L141.112348,14.1162587 L151.830457,14.1162587 C156.535105,14.1162587 159.0584,17.0251941 159.0584,20.5335132 C159.0584,23.7668856 157.053913,25.4770537 155.444428,26.2139107 L159.081982,32.8401246 L152.178294,32.8401246 L152.178294,32.8456235 Z M152.921133,20.5115174 C152.921133,19.4942149 151.954263,19.0543003 150.940229,19.0543003 L147.226033,19.0543003 L147.226033,22.0127261 L150.940229,22.0127261 C151.960159,21.9907303 152.921133,21.5508157 152.921133,20.5115174 Z" id="path23"></path>
            <path d="M16.0698384,0.420717328 C9.95684948,0.420717328 5.00970809,5.03504537 5.00970809,10.7367899 L5.00970809,14.6031595 C2.86306819,14.9656317 0.710259776,15.4489279 0.710259776,16.0760622 L0.710259776,36.2536787 C0.710259776,36.2536787 0.710259776,36.8117708 1.38262687,37.076433 C3.81918653,37.9969972 13.405044,41.1614366 15.6072005,41.8863809 C15.8909517,41.9841909 15.9711423,41.9841909 16.0451644,41.9841909 C16.150029,41.9841909 16.199377,41.9841909 16.4831283,41.8863809 C18.6852847,41.1614366 28.2958162,37.9969972 30.7323759,37.076433 C31.355395,36.8347849 31.380069,36.2766928 31.380069,36.2766928 L31.380069,16.0760622 C31.380069,15.4489279 29.2581031,14.9426175 27.1052947,14.6031595 L27.1052947,10.7367899 C27.1361372,5.03504537 22.1581533,0.420717328 16.0698384,0.420717328 Z M16.0698384,5.35148931 C19.6722456,5.35148931 21.849728,7.38248407 21.849728,10.7425434 L21.849728,14.1026027 C17.8093569,13.8379405 14.3611624,13.8379405 10.2961173,14.1026027 L10.2961173,10.7425434 C10.2961173,7.37673055 12.4735997,5.35148931 16.0698384,5.35148931 L16.0698384,5.35148931 Z M16.0451644,19.0506353 C21.0724963,19.0506353 25.2917541,19.4131074 25.2917541,20.0632559 L25.2917541,32.6519713 C25.2917541,32.8475912 25.2670801,32.8706053 25.0820249,32.9396476 C24.9031382,33.0144435 16.5078023,35.8394248 16.5078023,35.8394248 C16.5078023,35.8394248 16.1685345,35.9372348 16.0698384,35.9372348 C15.9649738,35.9372348 15.6318745,35.8164107 15.6318745,35.8164107 C15.6318745,35.8164107 7.23653856,32.9914294 7.05765191,32.9166335 C6.87876525,32.8418377 6.84792272,32.8188236 6.84792272,32.6289572 L6.84792272,20.0402418 C6.79857468,19.3900933 11.0178324,19.0506353 16.0451644,19.0506353 L16.0451644,19.0506353 Z" id="Shape"></path>
        </g>
    </g>
</svg>