<?xml version="1.0" encoding="UTF-8"?>
<svg width="200px" height="200px" viewBox="0 0 200 200" version="1.1" xmlns="http://www.w3.org/2000/svg" xmlns:xlink="http://www.w3.org/1999/xlink">
    <title>Artboard</title>
    <g id="Artboard" stroke="none" stroke-width="1" fill="none" fill-rule="evenodd">
        <g id="twitter" transform="translate(55.000000, 63.000000)" fill="#1D9BF0" fill-rule="nonzero">
            <path d="M80.786106,18.2057128 C80.8409506,18.9991314 80.8409506,19.7925501 80.8409506,20.5932813 C80.8409506,44.9918188 62.2669104,73.1307585 28.3034735,73.1307585 L28.3034735,73.1161332 C18.2705667,73.1307585 8.44606947,70.2569011 0,64.8382539 C1.45886654,65.0137566 2.9250457,65.101508 4.39488117,65.1051643 C12.7093236,65.1124769 20.786106,62.3227146 27.3272395,57.1856031 C19.4259598,57.0356945 12.4972578,51.8839577 10.0767824,44.362934 C12.8446069,44.8967548 15.6965265,44.7870656 18.4131627,44.0448352 C9.79890311,42.304433 3.60146252,34.7358773 3.60146252,25.946115 C3.60146252,25.8656762 3.60146252,25.7888937 3.60146252,25.7121113 C6.16819013,27.1417274 9.04204753,27.935146 11.9817185,28.0228974 C3.86837294,22.6005939 1.36745887,11.8071753 6.26691042,3.36841842 C15.6416819,14.9040674 29.4734918,21.9168645 44.321755,22.6590948 C42.833638,16.2459321 44.8665448,9.52563963 49.6636197,5.01741294 C57.1005484,-1.97344629 68.797075,-1.61512819 75.7879342,5.8181442 C79.9232176,5.00278771 83.8866545,3.48542025 87.5137112,1.33551166 C86.1352834,5.60973469 83.250457,9.24044767 79.3967093,11.5475775 C83.0566728,11.1161332 86.6325411,10.1362429 90,8.6408133 C87.5210238,12.3556213 84.3985375,15.5914532 80.786106,18.2057128 Z" id="white_background"></path>
        </g>
    </g>
</svg>