<?xml version="1.0" encoding="UTF-8"?>
<svg width="200px" height="200px" viewBox="0 0 200 200" version="1.1" xmlns="http://www.w3.org/2000/svg" xmlns:xlink="http://www.w3.org/1999/xlink">
    <title>apple</title>
    <g id="apple" stroke="none" stroke-width="1" fill="none" fill-rule="evenodd">
        <g id="Apple_logo_black" transform="translate(57.300000, 50.000000)" fill="#000000" fill-rule="nonzero">
            <path d="M82.6776787,77.9303597 C81.1718618,81.4240835 79.3894655,84.6400334 77.3243433,87.5967333 C74.5093849,91.6274731 72.2045625,94.417513 70.4283117,95.9668529 C67.6748177,98.5099828 64.7246443,99.8124127 61.5654995,99.8864827 C59.2975544,99.8864827 56.562497,99.2383528 53.3787681,97.9235828 C50.1845921,96.6149729 47.2491692,95.9668529 44.5651252,95.9668529 C41.7501678,95.9668529 38.7311558,96.6149729 35.5019466,97.9235828 C32.2678156,99.2383528 29.662445,99.9235227 27.6704629,99.9914227 C24.6410028,100.121046 21.6213794,98.7815728 18.6072842,95.9668529 C16.6835265,94.281713 14.2772916,91.3929131 11.3947252,87.3004433 C8.30196087,82.9302035 5.75928007,77.8624607 3.76729818,72.0848579 C1.63395411,65.8443062 0.564516129,59.8012805 0.564516129,53.9508427 C0.564516129,47.249195 2.00641358,41.4691232 4.89451036,36.6254424 C7.16429997,32.7348216 10.1839254,29.6657787 13.9632186,27.4127588 C17.7425158,25.1597429 21.8260474,24.01163 26.223651,23.938174 C28.6298838,23.938174 31.7853425,24.6856819 35.7066136,26.1547739 C39.6168232,27.6288028 42.1275443,28.3763118 43.2283258,28.3763118 C44.0513011,28.3763118 46.8404446,27.5022618 51.5687128,25.7597249 C56.0400719,24.143724 59.813834,23.474607 62.9053698,23.738179 C71.2826341,24.417171 77.5763375,27.7337378 81.7618969,33.7088646 C74.2696857,38.2679864 70.5635296,44.6535941 70.6372831,52.8453197 C70.7048911,59.2259895 73.0097135,64.5357033 77.5394593,68.7516281 C79.5922864,70.708355 81.8848197,72.2206549 84.4354839,73.2946979 C83.882334,74.9057598 83.2984455,76.4489227 82.6776787,77.9303597 Z M63.4646751,2.00056991 C63.4646751,7.0017107 61.6453986,11.6712625 58.0191466,15.9933513 C53.6430524,21.1314691 48.3499526,24.100513 42.6100194,23.63201 C42.5368802,23.032027 42.4944718,22.400566 42.4944718,21.7370071 C42.4944718,16.9359163 44.5755733,11.7978005 48.2712823,7.59669368 C50.1163667,5.46959977 52.4629842,3.70094984 55.3086734,2.2900639 C58.148215,0.900228962 60.834103,0.131620994 63.3601869,0 C63.4339454,0.668574972 63.4646751,1.33719094 63.4646751,2.00050491 L63.4646751,2.00056991 Z" id="path4"></path>
        </g>
    </g>
</svg>