<?xml version="1.0" encoding="UTF-8"?>
<svg width="200px" height="200px" viewBox="0 0 200 200" version="1.1" xmlns="http://www.w3.org/2000/svg" xmlns:xlink="http://www.w3.org/1999/xlink">
    <title>cigna</title>
    <g id="cigna" stroke="none" stroke-width="1" fill="none" fill-rule="evenodd">
        <g id="Cigna_logo" transform="translate(57.000000, 50.000000)" fill-rule="nonzero">
            <g id="g2993" transform="translate(43.165468, 49.955541) scale(-1, 1) rotate(-180.000000) translate(-43.165468, -49.955541) ">
                <g id="g3051" transform="translate(27.848312, 36.185670)" fill="#0982C6">
                    <path d="M1.40622684,36.3788067 C3.04448111,36.3788067 13.6825872,31.7069284 13.6825872,14.925105 C13.6825872,6.90497735 10.9699756,0.219672025 9.36828322,0.219672025 C8.66235734,0.219672025 8.39376802,0.922062832 8.39376802,2.27087705 C8.39376802,5.23994735 9.44562569,7.87041491 9.44562569,14.2087224 C9.44562569,26.4459933 4.38039661,31.3837167 2.11215272,34.1624979 C1.44278874,34.9852186 0.93514085,35.5211064 0.93514085,36.0038252 C0.93514085,36.2011102 1.07576353,36.3788067 1.40622684,36.3788067 M28.218754,36.0038252 C28.218754,35.5211064 27.7111061,34.9852186 27.0417422,34.1624979 C24.7749045,31.3837167 19.7110816,26.4459933 19.7110816,14.2087224 C19.7110816,7.87041491 20.7587206,5.23994735 20.7587206,2.27087705 C20.7587206,0.922062832 20.4929438,0.219672025 19.7870179,0.219672025 C18.1853255,0.219672025 15.4713077,6.90497735 15.4713077,14.925105 C15.4713077,31.7069284 26.11082,36.3788067 27.7518867,36.3788067 C28.0795376,36.3788067 28.218754,36.2011102 28.218754,36.0038252" id="path3053"></path>
                </g>
                <g id="g3055" transform="translate(38.541120, 65.007620)" fill="#F8971F">
                    <path d="M0,4.19755462 C0,2.00643111 1.73809638,0.232264689 3.88259231,0.232264689 C6.03271315,0.232264689 7.77221575,2.00643111 7.77221575,4.19755462 C7.77221575,6.3914765 6.03271315,8.16424374 3.88259231,8.16424374 C1.73809638,8.16424374 0,6.3914765 0,4.19755462" id="path3057"></path>
                </g>
                <g id="g3059" transform="translate(8.184620, 43.293530)" fill="#56B948">
                    <path d="M14.0622684,32.1812521 C12.0316769,33.0949198 10.5115456,34.9264528 10.2640497,36.7020184 C11.7715249,37.6898429 14.1522669,37.7653989 16.1856709,36.8517312 C18.3104797,35.8946887 18.808284,34.2758318 18.82094,32.85426 C17.7395516,31.9210037 16.1912959,31.2228105 14.0622684,32.1812521 M19.8882662,42.8612302 C18.5818815,44.8592662 18.2767303,47.3889925 19.0853107,49.1365744 C21.0216851,49.1617597 23.2196176,47.854921 24.5245961,45.8582842 C25.8900424,43.7665028 25.3964568,42.0175218 24.5780327,40.7246749 C23.0550891,40.5064021 21.2509,40.7680497 19.8882662,42.8612302 M22.9116539,32.2805942 C21.300118,33.6392027 20.3959141,35.700202 20.6349727,37.3834215 C22.2647896,37.8927247 24.4570972,37.3442443 26.0686332,35.9870349 C27.7561054,34.5612656 27.7828237,32.9605981 27.4214234,31.6593561 C26.1909749,31.0940854 24.5991261,30.8590224 22.9116539,32.2805942 M27.840479,37.3946149 C27.1472092,39.6235164 27.5381402,42.0916786 28.7714012,43.5286414 C30.6037148,43.0375275 32.3249364,41.2157888 33.0182062,38.9854881 C33.7438193,36.6502486 32.8086784,35.1335322 31.6893219,34.1317158 C30.1987214,34.3304001 28.5632796,35.0579762 27.840479,37.3946149 M19.3524938,21.1123006 C17.747989,20.8016815 16.0548919,21.259215 15.1464693,22.2176566 C15.6245864,23.4475401 17.0265946,24.5011263 18.6353181,24.8117454 C20.3157592,25.1363563 21.3043366,24.3765989 21.920264,23.5286928 C21.6685494,22.5100862 21.039966,21.4397098 19.3524938,21.1123006 M15.1113136,25.8415454 C13.284625,26.0388305 11.6182462,27.0840216 10.9643507,28.4146464 C11.8868355,29.5759699 13.7416487,30.2461794 15.5711498,30.0488943 C17.4864308,29.841815 18.2950112,28.7000801 18.6732862,27.586329 C18.0615776,26.5761175 17.0280008,25.6344661 15.1113136,25.8415454 M14.9481913,39.3492762 C13.5138399,40.5595711 12.7094782,42.3897049 12.9218184,43.8868327 C14.3716383,44.3415678 16.3192625,43.8518531 17.7536139,42.6457558 C19.2512455,41.3780943 19.27937,39.9551232 18.9573441,38.7979974 C17.8618933,38.2928916 16.4472291,38.0858123 14.9481913,39.3492762 M24.7228741,48.9490836 C24.1435086,50.8072011 24.4725657,52.8654021 25.4977051,54.0617051 C27.0276799,53.6503448 28.4634375,52.1322292 29.0413967,50.2769101 C29.6460743,48.3292447 28.8628059,47.06718 27.9318838,46.227669 C26.687373,46.3955712 25.3289579,47.0014183 24.7228741,48.9490836 M0.704519648,0.733172874 C0.704519648,0.682802218 0.736862865,0.642225857 0.8015493,0.642225857 C0.860610827,0.642225857 0.968890294,0.691197328 1.08560712,0.733172874 C6.82582509,2.78157953 15.299748,5.29311638 27.1936147,6.06126887 C27.2076769,6.16760692 27.2793945,6.69509962 27.2793945,7.10086323 C27.2793945,7.95716438 27.1767399,8.85124351 27.1500216,8.99955711 C14.9622536,7.88720513 6.55161085,4.37105355 1.02513937,0.992022075 C0.8015493,0.853502773 0.704519648,0.821321521 0.704519648,0.733172874 M49.6623071,32.85426 C49.6749632,34.2758318 50.1713613,35.8946887 52.2975762,36.8517312 C54.3267616,37.7653989 56.7117223,37.6898429 58.2177912,36.7020184 C57.9688891,34.9264528 56.4501641,33.0949198 54.4209788,32.1812521 C52.2905451,31.2228105 50.7451018,31.9210037 49.6623071,32.85426 M43.9052144,40.7246749 C43.0881967,42.0175218 42.594611,43.7665028 43.9600573,45.8582842 C45.2636296,47.854921 47.4615621,49.1617597 49.3979365,49.1365744 C50.2051107,47.3889925 49.8985532,44.8592662 48.5963872,42.8612302 C47.2337534,40.7680497 45.4253457,40.5064021 43.9052144,40.7246749 M41.0590113,31.6593561 C40.7004235,32.9605981 40.7271418,34.5612656 42.414614,35.9870349 C44.0275562,37.3442443 46.2170514,37.8927247 47.8496807,37.3834215 C48.0859268,35.700202 47.181723,33.6392027 45.570187,32.2805942 C43.8855273,30.8590224 42.2894598,31.0940854 41.0590113,31.6593561 M36.7911129,34.1317158 C35.6731625,35.1335322 34.7394279,36.6502486 35.4636347,38.9854881 C36.1540921,41.2157888 37.8809387,43.0375275 39.711846,43.5286414 C40.9451069,42.0916786 41.336038,39.6235164 40.6427682,37.3946149 C39.9171551,35.0579762 38.285932,34.3304001 36.7911129,34.1317158 M46.5629832,23.5286928 C47.1803168,24.3765989 48.1646756,25.1363563 49.8493353,24.8117454 C51.4580588,24.5011263 52.8572545,23.4475401 53.3367779,22.2176566 C52.4297616,21.259215 50.7366644,20.8016815 49.1279409,21.1123006 C47.4432812,21.4397098 46.8118853,22.5100862 46.5629832,23.5286928 M49.8085547,27.586329 C50.188236,28.7000801 50.9968164,29.841815 52.9120974,30.0488943 C54.7415985,30.2461794 56.5935992,29.5759699 57.5174903,28.4146464 C56.8635948,27.0840216 55.1986222,26.0388305 53.3719335,25.8415454 C51.4538401,25.6344661 50.417451,26.5761175 49.8085547,27.586329 M49.5244969,38.7979974 C49.202471,39.9551232 49.227783,41.3780943 50.7296333,42.6457558 C52.1639847,43.8518531 54.1116089,44.3415678 55.5600225,43.8868327 C55.7723628,42.3897049 54.9665948,40.5595711 53.5336496,39.3492762 C52.0346118,38.0858123 50.6185414,38.2928916 49.5244969,38.7979974 M40.5499572,46.227669 C39.6176288,47.06718 38.8371729,48.3292447 39.4418505,50.2769101 C40.0198097,52.1322292 41.4555673,53.6503448 42.978511,54.0617051 C44.0120877,52.8654021 44.3355199,50.8072011 43.7603731,48.9490836 C43.1542893,47.0014183 41.794468,46.3955712 40.5499572,46.227669 M67.4552954,0.992022075 C61.9316363,4.37105355 53.5195874,7.88720513 41.3318193,8.99955711 C41.3079135,8.85124351 41.2038527,7.95716438 41.2038527,7.10086323 C41.2038527,6.69509962 41.274164,6.16760692 41.2882263,6.06126887 C53.1806867,5.29311638 61.6532034,2.78157953 67.3962338,0.733172874 C67.5143569,0.691197328 67.6254488,0.642225857 67.6788854,0.642225857 C67.7463843,0.642225857 67.7787275,0.682802218 67.7787275,0.733172874 C67.7787275,0.821321521 67.6788854,0.853502773 67.4552954,0.992022075 M34.2416236,44.274407 C32.6624308,45.0061806 31.107144,46.3647892 31.107144,49.1897434 C31.107144,51.8873719 32.3868104,54.4814606 34.2416236,55.6455824 C36.0964368,54.4814606 37.3761032,51.8873719 37.3761032,49.1897434 C37.3761032,46.3647892 35.8236288,45.0061806 34.2416236,44.274407" id="path3061"></path>
                </g>
                <g id="g3063" transform="translate(0.040598, 0.074388)" fill="#0982C6">
                    <path d="M21.0934026,29.3828823 C21.0934026,28.0018869 22.236665,26.882539 23.6513292,26.882539 C25.0645872,26.882539 26.2092559,28.0018869 26.2092559,29.3828823 C26.2092559,30.7624786 25.0645872,31.8804273 23.6513292,31.8804273 C22.236665,31.8804273 21.0934026,30.7624786 21.0934026,29.3828823 M41.0646362,16.2235486 C41.0646362,12.2778473 39.513568,10.633805 37.2706362,10.633805 C35.0080172,10.633805 33.7396006,12.5436924 33.7396006,15.893341 C33.7396006,19.3129488 35.706912,22.1407014 39.3476333,22.1407014 C40.0985584,22.1407014 40.623081,22.0665446 41.0646362,21.9602066 L41.0646362,16.2235486 L41.0646362,16.2235486 Z M41.2826014,9.75091938 L41.2826014,8.46926604 C41.2826014,4.95171527 39.1057622,3.58611083 36.4044005,3.58611083 C33.9758467,3.58611083 32.1843137,4.31228778 31.6190105,4.50957285 L31.6190105,1.02980007 C32.0802529,0.906671798 34.051783,0.289631269 36.8656429,0.289631269 C41.8619668,0.289631269 45.2003494,2.34083629 45.2003494,9.37313947 L45.2003494,24.5472994 C44.5591099,24.7096049 42.2135236,25.3280446 39.513568,25.3280446 C32.5049334,25.3280446 29.4927955,20.6547671 29.4927955,15.598113 C29.4927955,10.9500208 31.8440068,7.30514422 36.3453389,7.30514422 C39.3138838,7.30514422 40.7412041,9.08910494 41.2052589,9.75091938 L41.2826014,9.75091938 L41.2826014,9.75091938 Z M17.4512751,11.897269 C16.3262936,11.3725747 14.5263233,11.026976 12.7840082,11.026976 C8.03236772,11.026976 4.53367534,14.4088058 4.53367534,19.5606045 C4.53367534,24.680222 8.00846186,28.1026282 12.7840082,28.1026282 C15.150688,28.1026282 16.8353477,27.526164 17.4512751,27.2351336 L17.4512751,30.9177882 C16.4134797,31.3011648 14.7274137,31.688739 12.3452654,31.688739 C4.97101188,31.688739 0.0154684953,26.6166938 0.0154684953,19.5606045 C0.0154684953,12.8920894 4.57586214,7.43946597 12.3452654,7.43946597 C14.6233529,7.43946597 16.3389497,7.79905649 17.4512751,8.21321521 L17.4512751,11.897269 Z M80.0241509,16.2235486 C80.0241509,12.2778473 78.4716764,10.633805 76.2301509,10.633805 C73.9647194,10.633805 72.6920841,12.5436924 72.6920841,15.893341 C72.6920841,19.3129488 74.6678328,22.1407014 78.3057417,22.1407014 C79.0496357,22.1407014 79.5769707,22.0665446 80.0241509,21.9602066 L80.0241509,16.2235486 Z M84.6801679,7.68992007 C84.5465764,8.65116007 84.1584578,11.1878822 84.1584578,13.3692115 L84.1584578,24.5472994 C83.5129997,24.7096049 81.1660071,25.3280446 78.4716764,25.3280446 C71.4602294,25.3280446 68.4523102,20.6547671 68.4523102,15.598113 C68.4523102,10.9500208 70.7950841,7.30514422 75.3006349,7.30514422 C78.5897995,7.30514422 80.0649315,9.42211094 80.6217973,10.5512531 L80.7300767,10.5512531 C80.7708573,10.0153653 80.9199174,8.19362662 80.9677291,7.68992007 L84.6801679,7.68992007 Z M25.7212952,24.8873013 L21.5869882,24.8873013 L21.5869882,7.68992007 L25.7212952,7.68992007 L25.7212952,24.8873013 Z M49.8816785,7.68992007 L49.8816785,19.5899874 C49.8816785,21.1850582 49.7354309,24.2450755 49.6932441,24.9390712 L53.4084954,24.9390712 L53.5828676,22.5198805 L53.66021,22.5198805 C54.0919217,23.197086 55.48268,25.3280446 58.7240329,25.3280446 C62.6375622,25.3280446 64.8115889,22.4667115 64.8115889,18.9001893 L64.8115889,7.68992007 L60.6800944,7.68992007 L60.6800944,18.0872629 C60.6800944,20.2769872 59.4552709,21.9322229 57.3501493,21.9322229 C55.1775288,21.9322229 54.0202041,20.1860402 54.0202041,18.0872629 L54.0202041,7.68992007 L49.8816785,7.68992007 Z" id="path3065"></path>
                </g>
            </g>
        </g>
    </g>
</svg>