<?xml version="1.0" encoding="UTF-8"?>
<svg width="200px" height="200px" viewBox="0 0 200 200" version="1.1" xmlns="http://www.w3.org/2000/svg" xmlns:xlink="http://www.w3.org/1999/xlink">
    <title>ib</title>
    <defs>
        <linearGradient x1="99.8693662%" y1="50.0025673%" x2="-0.15528169%" y2="50.0025673%" id="linearGradient-1">
            <stop stop-color="#D81222" offset="0%"></stop>
            <stop stop-color="#960B1A" offset="100%"></stop>
        </linearGradient>
    </defs>
    <g id="ib" stroke="none" stroke-width="1" fill="none" fill-rule="evenodd">
        <g id="ib-vertical" transform="translate(20.000000, 46.000000)" fill-rule="nonzero">
            <g id="type" transform="translate(0.000000, 95.881119)" fill="#000000">
                <polygon id="path9659" points="3.80388215 14.1572787 0.955098932 14.1572787 0.955098932 0.388159601 3.80388215 0.388159601"></polygon>
                <path d="M14.5263883,4.54264265 C15.1990152,5.09656276 15.5155516,6.00660321 15.5155516,7.27271913 L15.5155516,14.1572787 L12.7854602,14.1572787 L12.7854602,7.98491494 C12.7854602,7.43099483 12.7063522,7.03532052 12.5876305,6.75835299 C12.310663,6.24400181 11.8358658,5.96703428 11.084101,5.96703428 C10.1740755,5.96703428 9.58058651,6.36269364 9.22448113,7.11445837 C9.06622038,7.51011773 8.9475136,8.02448387 8.9475136,8.65754183 L8.9475136,14.1968476 L6.29656002,14.1968476 L6.29656002,3.98870759 L8.8683907,3.98870759 L8.8683907,5.49223707 C9.22448113,4.97787094 9.54101758,4.58221158 9.81798511,4.34481298 C10.3719052,3.94913867 11.0445321,3.71174006 11.9150036,3.71174006 C12.9832899,3.71174006 13.8537614,3.98870759 14.5263883,4.54264265 Z" id="path9661"></path>
                <path d="M16.8212371,5.96703428 L16.8212371,4.06784545 L18.2456287,4.06784545 L18.2456287,1.21906219 L20.8965823,1.21906219 L20.8965823,4.06784545 L22.558371,4.06784545 L22.558371,5.96703428 L20.8965823,5.96703428 L20.8965823,11.3480643 C20.8965823,11.7832926 20.936211,12.0206912 21.054843,12.139398 C21.1735797,12.2581347 21.4900713,12.2976587 22.0440079,12.2976587 L22.3209724,12.2976587 L22.5979414,12.2976587 L22.5979414,14.2759854 L21.2526727,14.3156142 C19.9865568,14.3552429 19.1160853,14.1573385 18.680857,13.6429723 C18.3643355,13.3264508 18.2456287,12.8516536 18.2456287,12.2185807 L18.2456287,5.9670941 L16.8212371,5.96703428 Z" id="path9663"></path>
                <path d="M30.7486184,4.18653727 C31.4608142,4.50307373 32.0543152,5.01743986 32.5291124,5.69006675 C32.9643437,6.28355578 33.2017423,6.9957516 33.360003,7.78708526 C33.439111,8.26188247 33.4787397,8.93450936 33.439111,9.80498088 L26.0006179,9.80498088 C26.0402466,10.8336982 26.3962937,11.545894 27.0689191,11.9415683 C27.4645799,12.1789669 27.9789431,12.3372277 28.5328811,12.3372277 C29.1263701,12.3372277 29.6407333,12.1789669 29.9968402,11.8624305 C30.1946713,11.7041697 30.3924995,11.4667711 30.5507618,11.1502346 L33.2808532,11.1502346 C33.2017452,11.7437237 32.8851774,12.3767966 32.2916884,13.0098546 C31.3816644,13.9990179 30.1155305,14.513384 28.4537403,14.513384 C27.1084895,14.513384 25.881926,14.0781558 24.8531953,13.2472532 C23.8244765,12.4163655 23.3101118,11.0315279 23.3101118,9.17190796 C23.3101118,7.39142591 23.784909,6.04615718 24.7345034,5.09656276 C25.6840979,4.14696834 26.8710909,3.67217114 28.3746039,3.67217114 C29.2450769,3.71179988 30.0363941,3.87001577 30.7485899,4.18653727 L30.7486184,4.18653727 Z M26.7524095,6.48140041 C26.3567487,6.87705977 26.1193501,7.39142591 26.0402137,8.06405279 L30.6299235,8.06405279 C30.5902948,7.35185698 30.352959,6.83749084 29.9177277,6.44183149 C29.4825009,6.0857261 28.9681333,5.88789643 28.3350783,5.88789643 C27.6624365,5.88789643 27.1480853,6.0857261 26.7524095,6.48140041 L26.7524095,6.48140041 Z" id="path9665"></path>
                <path d="M40.6402353,3.75130899 L40.877634,3.75130899 L40.877634,6.48140041 C40.7193597,6.48140041 40.561099,6.44177167 40.4424072,6.44177167 L40.1258677,6.44177167 C39.0575695,6.44177167 38.3453737,6.7978621 37.9497143,7.47048899 C37.7518817,7.8661633 37.6331779,8.45965233 37.6331779,9.29055492 L37.6331779,14.1572188 L34.9426688,14.1572188 L34.9426688,3.98864778 L37.4749171,3.98864778 L37.4749171,5.76914478 C37.8705765,5.09650294 38.2266789,4.62170574 38.5432183,4.38430713 C39.0575695,3.94907885 39.6906409,3.75124917 40.4819611,3.75124917 C40.5610691,3.71162043 40.6006978,3.71162043 40.6402353,3.75124917 L40.6402353,3.75130899 Z" id="path9667"></path>
                <path d="M46.4564937,7.98491494 C46.9708613,7.90580699 47.3269667,7.82665419 47.5247949,7.74751634 C47.9204557,7.58925558 48.1182839,7.35185698 48.1182839,6.9957516 C48.1182839,6.56052331 47.9600261,6.28355578 47.6830571,6.12529503 C47.4060881,5.96703428 46.9708613,5.88789643 46.3773723,5.88789643 C45.7442979,5.88789643 45.2695007,6.04615718 45.0321021,6.36269364 C44.8342739,6.60009224 44.715582,6.9166287 44.6364412,7.31228805 L42.064627,7.31228805 C42.1042557,6.40226256 42.38115,5.69006675 42.8163932,5.09656276 C43.528589,4.18653727 44.755136,3.75130899 46.4564937,3.75130899 C47.5643653,3.75130899 48.5930811,3.98870759 49.4635541,4.42393587 C50.3340122,4.85916416 50.769239,5.69006675 50.769239,6.9166287 L50.769239,11.5854629 L50.769239,12.772456 C50.769239,13.1285613 50.8483469,13.3659599 50.9274997,13.4846518 C51.0066077,13.6033885 51.1648983,13.7220504 51.3231725,13.8011882 L51.3231725,14.1968476 L48.4348234,14.1968476 C48.3557154,13.9990179 48.3160867,13.8011882 48.2765611,13.6033585 C48.2369324,13.4055139 48.2369324,13.2076842 48.1974532,12.9702856 C47.8413478,13.3659599 47.406121,13.7220504 46.9313238,13.9990179 C46.3378348,14.3155544 45.7047603,14.513384 44.9530091,14.513384 C44.0429701,14.513384 43.2516529,14.2364165 42.6581489,13.7220504 C42.0646599,13.2076842 41.7481204,12.4559195 41.7481204,11.4667711 C41.7481204,10.2006402 42.2229176,9.29061474 43.2120825,8.73667968 C43.766016,8.42014322 44.5177673,8.22231354 45.5860685,8.06405279 L46.4564937,7.98491494 Z M48.0787165,9.21147689 C47.9204557,9.33021358 47.7226231,9.40930657 47.5643653,9.48844442 C47.4060881,9.56755236 47.1686895,9.60718111 46.8521695,9.6862741 L46.2586655,9.80501078 C45.7047304,9.92374747 45.2695007,10.0424094 45.0321021,10.1611012 C44.5968753,10.3984998 44.3990426,10.7941592 44.3990426,11.3085253 C44.3990426,11.7833225 44.5177793,12.099859 44.7947034,12.2976887 C45.0321021,12.4955183 45.348637,12.6142251 45.7442979,12.6142251 C46.3378019,12.6142251 46.8521695,12.4559494 47.3665207,12.099859 C47.8413179,11.7437536 48.1182839,11.1502646 48.1182839,10.2402391 L48.1182839,9.2115068 L48.0787165,9.21147689 Z" id="path9669"></path>
                <path d="M59.1177605,7.62882451 C59.0781318,7.2331502 58.9594983,6.9166287 58.7220997,6.60009224 C58.4055647,6.20443288 57.9703335,5.96703428 57.337262,5.96703428 C56.4272351,5.96703428 55.833746,6.40226256 55.4776406,7.31228805 C55.3193829,7.78708526 55.2006746,8.42014322 55.2006746,9.21147689 C55.2006746,9.96324163 55.2797825,10.5567307 55.4776406,11.0315279 C55.7941801,11.8624305 56.3876676,12.2976587 57.2977081,12.2976587 C57.9307675,12.2976587 58.3659943,12.139398 58.6429633,11.7832926 C58.9199279,11.4272022 59.0781901,10.9919739 59.1177605,10.4776078 L61.8478355,10.4776078 C61.7687276,11.3084954 61.4917466,12.0602601 60.977379,12.772456 C60.1464913,13.91988 58.9199279,14.513384 57.2581377,14.513384 C55.5963474,14.513384 54.4093544,14.0385868 53.6180222,13.0494235 C52.8266886,12.0602601 52.4705996,10.7941293 52.4705996,9.25104581 C52.4705996,7.51011773 52.9058264,6.12529503 53.736729,5.17570061 C54.6071871,4.18653727 55.7546097,3.71174006 57.2977081,3.71174006 C58.5638225,3.71174006 59.6321237,3.98870759 60.4234439,4.58221158 C61.2147776,5.17570061 61.7291452,6.16486396 61.887403,7.62882451 L59.1177605,7.62882451 Z" id="path9671"></path>
                <path d="M62.7183055,5.96703428 L62.7183055,4.06784545 L64.1426972,4.06784545 L64.1426972,1.21906219 L66.7936522,1.21906219 L66.7936522,4.06784545 L68.4554425,4.06784545 L68.4554425,5.96703428 L66.7936522,5.96703428 L66.7936522,11.3480643 C66.7936522,11.7832926 66.8331314,12.0206912 66.9519145,12.139398 C67.0706512,12.2581347 67.3871413,12.2976587 67.9410748,12.2976587 L68.2180439,12.2976587 L68.4949964,12.2976587 L68.4949964,14.2759854 L67.1893131,14.3156142 C65.9231792,14.3552429 65.0527257,14.1573385 64.6174944,13.6429723 C64.3009594,13.3264508 64.1822676,12.8516536 64.1822676,12.2185807 L64.1822676,5.9670941 L62.7183055,5.96703428 Z" id="path9673"></path>
                <path d="M72.9264455,2.76214564 L70.2359245,2.76214564 L70.2359245,0.309036703 L72.9264455,0.309036703 L72.9264455,2.76214564 Z M70.1963541,3.98870759 L72.8868796,3.98870759 L72.8868796,14.1968476 L70.1963541,14.1968476 L70.1963541,3.98870759 Z" id="path9675"></path>
                <polygon id="path9677" points="81.5914871 3.98870759 84.4402704 3.98870759 80.7605995 14.1968476 77.9513866 14.1968476 74.3112712 3.98870759 77.3183122 3.98870759 79.4548997 11.5063251"></polygon>
                <path d="M92.2348569,4.18653727 C92.9470527,4.50307373 93.5405582,5.01743986 94.0153554,5.69006675 C94.4505822,6.28355578 94.6879808,6.9957516 94.8462415,7.78708526 C94.9253495,8.26188247 94.9649782,8.93450936 94.9253495,9.80498088 L87.4868564,9.80498088 C87.5264851,10.8336982 87.8825322,11.545894 88.5551576,11.9415683 C88.9508184,12.1789669 89.4651816,12.3372277 90.0191196,12.3372277 C90.6126087,12.3372277 91.1269718,12.1789669 91.4830787,11.8624305 C91.6809099,11.7041697 91.878738,11.4667711 92.0370003,11.1502346 L94.7670917,11.1502346 C94.6879838,11.7437237 94.3714159,12.3767966 93.7779269,13.0098546 C92.8679029,13.9990179 91.601769,14.513384 89.9399788,14.513384 C88.594728,14.513384 87.3681646,14.0781558 86.3394338,13.2472532 C85.310715,12.4163655 84.7963503,11.0315279 84.7963503,9.17190796 C84.7963503,7.39142591 85.2711475,6.04615718 86.220742,5.09656276 C87.1703364,4.14696834 88.3573294,3.67217114 89.8608424,3.67217114 C90.7313154,3.71179988 91.5226327,3.87001577 92.2348285,4.18653727 L92.2348569,4.18653727 Z M88.238648,6.48140041 C87.8429917,6.87705977 87.6055931,7.39142591 87.5264522,8.06405279 L92.1161665,8.06405279 C92.0765378,7.35185698 91.8391975,6.83749084 91.4039707,6.44183149 C90.9687395,6.0857261 90.4543763,5.88789643 89.8213169,5.88789643 C89.148675,5.88789643 88.6343238,6.0857261 88.238648,6.48140041 L88.238648,6.48140041 Z" id="path9679"></path>
                <path d="M96.666306,0.427728528 L102.601271,0.427728528 C104.223495,0.427728528 105.370918,0.902525736 106.043543,1.85212015 C106.439219,2.40605521 106.637047,3.0786821 106.637047,3.83044684 C106.637047,4.70090341 106.399649,5.41309922 105.885286,5.96703428 C105.647887,6.24400181 105.252226,6.52095439 104.777429,6.75835299 C105.489625,7.03532052 106.003976,7.31228805 106.360083,7.66839344 C106.993138,8.26188247 107.270107,9.09278506 107.270107,10.1610713 C107.270107,11.0315279 106.993138,11.8624305 106.439219,12.5746263 C105.608317,13.6429125 104.263061,14.1968476 102.442997,14.1968476 L96.5871696,14.1968476 L96.5871696,0.427728528 L96.666306,0.427728528 Z M101.928646,6.24400181 C102.719963,6.24400181 103.353037,6.12526512 103.788264,5.92746535 C104.50046,5.57135997 104.816983,4.97787094 104.816983,4.06784545 C104.816983,3.15781995 104.460894,2.56431597 103.709128,2.24777951 C103.273901,2.08951876 102.680395,1.97082693 101.849509,1.97082693 L98.4863584,1.97082693 L98.4863584,6.24400181 L101.928646,6.24400181 Z M102.561705,12.5746263 C103.709128,12.5746263 104.54003,12.2580898 105.014828,11.5854629 C105.331348,11.1502346 105.489625,10.6754374 105.489625,10.0819335 C105.489625,9.09278506 105.054382,8.42014322 104.144355,8.02448387 C103.669557,7.82665419 103.036502,7.74751634 102.245166,7.74751634 L98.5259289,7.74751634 L98.5259289,12.5746263 L102.561705,12.5746263 Z" id="path9681"></path>
                <path d="M109.327556,4.14696834 L110.910222,4.14696834 L110.910222,5.88789643 C111.028959,5.531806 111.345453,5.13613169 111.859817,4.66133448 C112.374184,4.18653727 112.967673,3.94913867 113.640299,3.94913867 L113.798576,3.94913867 C113.877684,3.94913867 113.996404,3.94913867 114.194237,3.98876741 L114.194237,5.76926442 C114.0755,5.76926442 113.996404,5.72963568 113.917268,5.72963568 L113.640299,5.72963568 C112.809411,5.72963568 112.136786,6.00660321 111.701542,6.56052331 C111.226745,7.11445837 111.028914,7.74751634 111.028914,8.45971215 L111.028914,14.2364165 L109.327556,14.2364165 L109.327556,4.14696834 Z" id="path9683"></path>
                <path d="M122.819723,5.13613169 C123.690181,6.00660321 124.164978,7.27271913 124.164978,8.93450936 C124.164978,10.5567307 123.769317,11.9019994 122.977985,12.9307167 C122.186648,13.9990179 120.999655,14.513384 119.337865,14.513384 C117.953044,14.513384 116.884758,14.0385868 116.093426,13.1285613 C115.302089,12.1789669 114.866862,10.952405 114.866862,9.36973764 C114.866862,7.66839344 115.302089,6.36269364 116.132992,5.33396137 C116.963879,4.34481298 118.111305,3.83044684 119.535696,3.83044684 C120.841398,3.87007558 121.909682,4.30524405 122.819723,5.13613169 L122.819723,5.13613169 Z M121.751422,11.8228615 C122.147081,10.9919739 122.38448,10.0423795 122.38448,9.01364721 C122.38448,8.06405279 122.226219,7.31228805 121.94925,6.71879902 C121.474453,5.80875857 120.683135,5.33396137 119.535696,5.33396137 C118.506978,5.33396137 117.794782,5.72963568 117.319985,6.52095439 C116.845187,7.31228805 116.607789,8.26188247 116.607789,9.36973764 C116.607789,10.4380388 116.845187,11.3084954 117.319985,12.0206912 C117.794782,12.732887 118.506978,13.0889924 119.535696,13.0889924 C120.603999,13.0889924 121.355761,12.6537641 121.751422,11.8228615 L121.751422,11.8228615 Z" id="path9685"></path>
                <polygon id="path9687" points="126.024597 0.427728528 127.646816 0.427728528 127.646816 8.42014322 131.959554 4.14696834 134.096142 4.14696834 130.258201 7.86622311 134.33354 14.1572787 132.196953 14.1572787 129.031641 9.05321614 127.646816 10.3984699 127.646816 14.1572787 126.024597 14.1572787"></polygon>
                <path d="M141.336807,4.42393587 C142.009433,4.74047233 142.5238,5.17570061 142.840336,5.72963568 C143.156872,6.24400181 143.394271,6.83749084 143.512963,7.51011773 C143.6317,7.98491494 143.671224,8.69711075 143.671224,9.72584302 L136.391005,9.72584302 C136.430634,10.7545753 136.667957,11.545894 137.103201,12.1789669 C137.538429,12.8120249 138.250625,13.0889924 139.16065,13.0889924 C140.031107,13.0889924 140.743303,12.8120249 141.257684,12.2185209 C141.534636,11.8624305 141.772035,11.5063251 141.890727,11.0315279 L143.552532,11.0315279 C143.512903,11.3876333 143.354687,11.8228615 143.117289,12.2580898 C142.87989,12.6933181 142.602922,13.0889924 142.286401,13.3659599 C141.772035,13.8803111 141.138977,14.1968476 140.387212,14.3946773 C139.991538,14.5134139 139.516741,14.552953 139.002389,14.552953 C137.775827,14.552953 136.707526,14.1177097 135.83707,13.2076842 C134.966613,12.2976587 134.53137,11.0315279 134.53137,9.40930657 C134.53137,7.78708526 134.966613,6.48140041 135.83707,5.49223707 C136.707526,4.50307373 137.85495,3.98870759 139.239788,3.98870759 C139.991538,3.90959965 140.66418,4.10744428 141.336807,4.42393587 L141.336807,4.42393587 Z M141.969879,8.38058925 C141.890771,7.66839344 141.732481,7.07488945 141.495082,6.63966117 C141.020285,5.80875857 140.268505,5.41309922 139.200219,5.41309922 C138.448454,5.41309922 137.775827,5.69006675 137.261461,6.24400181 C136.74711,6.79792192 136.470128,7.51011773 136.430559,8.38058925 L141.969879,8.38058925 Z" id="path9689"></path>
                <path d="M145.689119,4.14696834 L147.271772,4.14696834 L147.271772,5.88789643 C147.390508,5.531806 147.707,5.13613169 148.221366,4.66133448 C148.735732,4.18653727 149.329236,3.94913867 150.001848,3.94913867 L150.160124,3.94913867 C150.239232,3.94913867 150.357953,3.94913867 150.555786,3.98876741 L150.555786,5.76926442 C150.437049,5.76926442 150.357953,5.72963568 150.278831,5.72963568 L150.001848,5.72963568 C149.17096,5.72963568 148.498334,6.00660321 148.063105,6.56052331 C147.588308,7.11445837 147.390463,7.74751634 147.390463,8.45971215 L147.390463,14.2364165 L145.689119,14.2364165 L145.689119,4.14696834 Z" id="path9691"></path>
                <path d="M153.048479,11.0315279 C153.088108,11.5854629 153.246309,12.0206912 153.483707,12.3372277 C153.918936,12.8911627 154.6707,13.1681153 155.739001,13.1681153 C156.372059,13.1681153 156.925995,13.0493786 157.440346,12.772456 C157.915143,12.4954884 158.152541,12.0998291 158.152541,11.5063251 C158.152541,11.0710968 157.954712,10.7545753 157.559052,10.5171767 C157.321654,10.39844 156.807288,10.2402092 156.095092,10.0423795 L154.749823,9.6862741 C153.879367,9.48844442 153.246309,9.25104581 152.81108,8.97407828 C152.059316,8.49928107 151.703225,7.90579204 151.703225,7.07488945 C151.703225,6.12529503 152.059316,5.37353029 152.731943,4.78004126 C153.404569,4.18653727 154.354164,3.90956974 155.541157,3.90956974 C157.084255,3.90956974 158.19211,4.34481298 158.864737,5.25483847 C159.299981,5.80875857 159.497795,6.44183149 159.497795,7.07488945 L157.915143,7.07488945 C157.875514,6.67923009 157.756882,6.36269364 157.519484,6.04615718 C157.123809,5.6109289 156.451197,5.37353029 155.462019,5.37353029 C154.828961,5.37353029 154.31461,5.49226698 153.998073,5.72963568 C153.681537,5.96703428 153.483707,6.28355578 153.483707,6.67923009 C153.483707,7.11445837 153.721106,7.4705488 154.156334,7.70794741 C154.393733,7.86622311 154.789407,7.98491494 155.264204,8.10362172 L156.411613,8.38058925 C157.63819,8.65754183 158.469078,8.97407828 158.904306,9.25104581 C159.576933,9.6862741 159.89347,10.358901 159.89347,11.2689265 C159.89347,12.1789669 159.537379,12.9307167 158.864737,13.5637896 C158.19211,14.1968476 157.123809,14.552953 155.739001,14.552953 C154.235472,14.552953 153.167171,14.1968476 152.534113,13.5242207 C151.90104,12.8515938 151.584518,12.0206912 151.505381,10.9919739 L153.048479,10.9919739 L153.048479,11.0315279 Z" id="path9693"></path>
            </g>
            <g id="logo" transform="translate(57.722838, 0.548013)">
                <polygon id="polygon9702" fill="url(#linearGradient-1)" points="9.96181374e-14 87.6680189 9.96181374e-14 44.9965339 38.8419928 87.6680189"></polygon>
                <circle id="circle9704" fill="#D81222" cx="33.3713679" cy="55.3909396" r="11.6252443"></circle>
                <polygon id="polygon9706" fill="#D81222" points="9.96181374e-14 44.9965339 9.96181374e-14 87.6680189 38.8419928 -1.37404328e-14"></polygon>
            </g>
        </g>
    </g>
</svg>