<?xml version="1.0" encoding="UTF-8"?>
<svg width="200px" height="200px" viewBox="0 0 200 200" version="1.1" xmlns="http://www.w3.org/2000/svg" xmlns:xlink="http://www.w3.org/1999/xlink">
    <title>kraken</title>
    <g id="kraken" stroke="none" stroke-width="1" fill="none" fill-rule="evenodd">
        <g id="kraken-2" transform="translate(50.000000, 60.862855)" fill="#0DA8FF" fill-rule="nonzero">
            <path d="M46.8402681,0.125682626 C55.4919958,-0.432493359 64.3065249,1.31180659 72.0977314,5.17252382 C83.5635964,10.8007983 92.7037282,20.9875101 97.0295921,33.0115511 C98.9366934,38.3142229 99.9607848,43.9424975 99.9607848,49.570772 L99.9607848,70.5023714 C99.9607848,71.3628927 99.9832733,72.223414 99.7739573,73.060678 C99.3088107,75.1770953 97.7970841,77.0376819 95.8202108,77.9214605 C94.4480281,78.5726659 92.8665295,78.6424379 91.3780602,78.4098645 C88.1918056,77.8284312 85.703271,74.8282353 85.6800137,71.595466 C85.6567564,65.1066702 85.6800137,58.6178744 85.6800137,52.1058212 C85.7265284,50.268492 85.7497857,48.2916187 84.7497204,46.6636054 C83.1217071,43.6634095 79.2144752,42.2447122 76.051478,43.5238623 C73.3768847,44.4774161 71.4465261,47.1752667 71.4232688,50.0126613 C71.4000114,56.6177438 71.4232688,63.1995689 71.4232688,69.7813941 C71.4232688,71.0140327 71.4930408,72.2699287 71.1209234,73.4560527 C70.4464608,75.7817859 68.5161022,77.6656299 66.1903689,78.2935779 C63.1436583,79.1308418 59.6318011,77.7819165 58.0968171,74.9677793 C57.0502371,73.269994 57.1200091,71.2233487 57.1432665,69.3162474 C57.1200091,62.780937 57.1665238,56.2223691 57.1200091,49.6870586 C57.0502371,46.3612601 54.3291292,43.3610641 51.026588,42.9424321 C48.8869134,42.6168295 46.6309521,43.3378068 45.0727108,44.8495334 C43.6772708,46.1752014 42.8632642,48.0823027 42.8632642,50.0126613 L42.8632642,69.0836741 C42.8400069,70.6884301 43.0260655,72.3397007 42.4213749,73.8514273 C41.4678242,76.5725352 38.723459,78.5726659 35.8162924,78.5028939 C32.8393538,78.6656952 29.9554445,76.6190499 29.0018939,73.82817 C28.4669752,72.4559874 28.5832619,70.9675181 28.5832619,69.5255634 C28.5832619,62.9437383 28.6065192,56.3619131 28.5832619,49.780088 C28.5600046,46.5240614 26.0249553,43.5471228 22.8387007,42.9656895 C19.9315341,42.3377415 16.7220222,43.8029535 15.2800676,46.4077747 C14.6521196,47.5008694 14.326517,48.7567653 14.326517,49.989404 L14.326517,71.3628927 C14.3497743,73.4327953 13.3962236,75.5026979 11.7914677,76.8283659 C9.37270508,78.9447832 5.46547319,79.0610698 2.93042392,77.1074539 C1.09309464,75.8515579 0,73.688626 0,71.4559221 L0,49.8033453 C0.0232573327,41.6167642 2.09315994,33.4534404 6.00039184,26.2436673 C9.18664642,20.3595621 13.5822823,15.1266622 18.8384395,10.9403423 C26.7459326,4.56783317 36.6768137,0.730373276 46.8402681,0.125682626 Z" id="_x23_0da8ffff"></path>
        </g>
    </g>
</svg>