<?xml version="1.0" encoding="UTF-8"?>
<svg width="226px" height="389px" viewBox="0 0 226 389" version="1.1" xmlns="http://www.w3.org/2000/svg" xmlns:xlink="http://www.w3.org/1999/xlink">
    <title>intj</title>
    <g id="Page-1" stroke="none" stroke-width="1" fill="none" fill-rule="evenodd">
        <g id="intj" transform="translate(113.000000, 194.500000) scale(-1, 1) translate(-113.000000, -194.500000) " fill-rule="nonzero">
            <polygon id="Path" fill="#CECECD" points="182 334.87 145.64 340.48 182.52 352.86 221.61 340.09 220.05 338.65 218.23 339.69 204.02 337.74 202.72 336.31 201.28 337.48"></polygon>
            <polygon id="Path" fill="#ABABAB" points="139.38 357.68 145.64 340.48 183.04 345.82 221.61 340.09 225.65 357.94 182.65 365.5"></polygon>
            <polygon id="Path" fill="#CECECD" points="155.54 101.35 179.26 91.71 202.85 102.92 202.33 139.93 179 142.4 155.54 141.1"></polygon>
            <polygon id="Path" fill="#CECECD" points="164.53 193.75 170.01 180.84 164.8 169.77 164.93 149.57 180.17 144.1 194.9 148.92 195.55 169.9 191.25 179.93 196.46 194.4 200.5 312.72 183.3 316.89 163.49 312.85"></polygon>
            <path d="M183,207.56 L173.49,207.43 L173.49,209.64 L181.96,209.64 L183.13,209.77 L183.13,211 L183,216.34 L183,218.16 L171.53,218.43 L171.01,215.17 L180.26,215.43 L180.39,212.04 L172.44,212.69 L170.88,213.08 L170.88,205.39 L171.79,205.13 L182.22,204.35 L183,207.56 Z M170.62,294.48 L175.31,291.09 L171.66,286.53 L174.53,284.96 L177.92,288.87 L188.16,283 L179.43,291.08 L185.43,297.98 L181.91,298.9 L177.48,293.42 L172.48,299.81 L170.62,294.48 Z M183.78,271.41 L174.78,271.02 L174.78,272.71 L182.34,272.58 L181.43,276.23 L174.65,275.45 L174.65,278.06 L184.29,278.45 L183.77,282.1 L171.91,281.45 L171.26,268.8 L183.51,267.89 L183.78,271.41 Z M182.78,254.47 L174.31,253.56 L175.22,260.07 L182.78,259.07 L184.08,263.5 L171.35,263.5 L171.35,261.81 L171.61,252.03 L171.61,250.86 L183.21,250.86 L182.78,254.47 Z M171.57,247.17 L171.7,237.92 L171.7,236.92 L172.61,236.66 L177.96,234.83 L178.74,234.83 L183.3,236.27 L184.3,236.53 L184.3,237.44 L184.17,247.44 L181.44,247.18 L181.57,243.66 L174.4,243.4 L174.53,246.92 L171.57,247.17 Z M174.44,238.83 L174.44,240.14 L181.44,240.92 L181.57,238.44 L178.31,237.44 L174.44,238.83 Z M171.31,233.75 L171.31,222.28 L183.56,221.63 L183.43,230.49 L174.05,229.84 L174.31,233.62 L171.31,233.75 Z M173.66,224.5 L173.79,227.1 L180.79,227.1 L180.27,224.37 L173.66,224.5 Z" id="Shape" fill="#858686" transform="translate(179.390000, 252.080000) scale(-1, 1) translate(-179.390000, -252.080000) "></path>
            <path d="M181.35,166.77 L195.55,169.12 L196.46,196.74 L181.74,194 L164.54,196 L164.8,168.89 L181.35,166.77 Z M201.28,337.48 L183.56,340.35 L163.23,337.74 L163.49,312.2 L200.37,312.07 L201.28,337.48 Z" id="Shape" fill="#858686"></path>
            <polygon id="Path" fill="#ABABAB" points="155.54 141.1 180.17 136.41 202.33 139.93 194.9 148.92 180.3 146.96 164.93 149.57"></polygon>
            <polygon id="Path" fill="#E6E6E6" points="155.54 101.35 179.26 96.79 202.85 102.92 178.74 80.5"></polygon>
            <path d="M155.54,101.35 L178.74,80.5 L179.26,96.79 L180.17,136.41 L181.08,146.83 L183.56,340.35 L163.23,337.74 L164.93,149.57 L155.54,141.1 L155.54,101.35 Z M139.38,357.68 L145.64,340.48 L183.04,345.82 L182.65,365.5 L139.38,357.68 Z" id="Shape" fill-opacity="0.1" fill="#2B2B2B"></path>
            <polygon id="Path" fill="#B2879C" points="29.53 169.64 6.99 227.37 21.19 231.8 36.31 226.06 34.48 176.28"></polygon>
            <polygon id="Path" fill="#95637C" points="29.53 169.64 60.42 155.69 53.12 196.35 38 210.16 30.18 207.56"></polygon>
            <polygon id="Path" fill="#FCE3D4" points="19.63 224.63 30.18 207.56 45.43 197.78 47.65 210.29 33.05 225.8"></polygon>
            <polygon id="Path" fill="#95637C" points="124.27 149.31 118.54 157.52 102.12 189.84 124.66 211.34 152.03 193.09 158.28 174.07"></polygon>
            <polygon id="Path" fill="#454444" points="0.47 372.27 12.85 369.14 45.3 367.71 54.16 372.27 54.16 379.44 0.34 379.18"></polygon>
            <polygon id="Path" fill="#454444" points="109.41 380.74 118.14 377.23 140.95 375.66 146.94 380.35 146.94 388.82 109.41 388.82"></polygon>
            <polygon id="Path" fill="#545657" points="30.7 350.12 0.47 372.27 54.16 372.27 54.16 356.51 42.43 347.77"></polygon>
            <polygon id="Path" fill="#545657" points="114.76 360.42 109.41 380.74 146.94 380.35 139.38 357.68 127.66 354.16"></polygon>
            <polygon id="Path" fill="#8F759F" points="56.12 292 47.12 349.08 40.87 352.86 30.7 350.12 29.92 296.69 55.72 285.48"></polygon>
            <polygon id="Path" fill="#8F759F" points="99.25 301.12 121.79 352.2 128.7 358.85 139.38 357.68 138.86 294.09 100.42 283.92"></polygon>
            <polygon id="Path" fill="#785D87" points="55.72 285.48 45.82 286.14 48.04 304.77 40.87 352.86 54.16 356.51 79.57 303.86 75.53 294.09"></polygon>
            <polygon id="Path" fill="#785D87" points="83.35 293.56 105.5 281.06 107.59 285.23 109.67 308.29 128.7 358.85 114.76 360.42 79.57 303.86"></polygon>
            <polygon id="Path" fill="#594165" points="47.38 269.33 42.3 282.1 50.51 289.13 79.57 303.86 107.59 285.23 100.16 269.85"></polygon>
            <path d="M49.08,248.74 L40.08,269.2 L44.51,272.2 L96.76,274.2 L100.15,269.9 L87.25,248.9 L70.57,240.56 L49.08,248.74 Z M71.75,178.11 L67.58,170.42 L54.16,171.59 L57.94,219.59 L86.61,220.89 L97,169.38 L82.54,171.07 L71.75,178.11 Z" id="Shape" fill="#6F7173"></path>
            <polygon id="Path" fill="#95637C" points="29.53 264.24 18.45 291.61 48.04 304.77 56.12 251.21 49.08 248.74"></polygon>
            <polygon id="Path" fill="#95637C" points="91.56 260.2 109.67 308.29 153.07 287.31 137.82 241.83 115.8 243.92"></polygon>
            <polygon id="Path" fill="#95637C" points="6.99 227.37 29.53 264.24 69.02 244.96 70.58 240.53 37.35 220.85"></polygon>
            <polygon id="Path" fill="#F4C9B2" points="88.04 225.02 84.13 210.81 94.43 194.66 110.59 191.01 120.1 206.52 116.58 219.16"></polygon>
            <polygon id="Path" fill="#B2879C" points="34.74 184.36 60.29 216.42 58.59 173.16 54.16 171.59"></polygon>
            <polygon id="Path" fill="#B2879C" points="92.21 173.29 84.13 210.81 117.88 185.53 107.2 174.46"></polygon>
            <polygon id="Path" fill="#B2879C" points="66.15 221.37 59.89 216.03 84.13 210.81 88.96 222.94"></polygon>
            <polygon id="Path" fill="#8F8F8F" points="64.85 149.18 34.74 184.36 58.59 173.16 71.75 178.11 72.67 158.56"></polygon>
            <polygon id="Path" fill="#8F8F8F" points="120.1 139.93 107.07 143.31 84.39 160.65 71.75 178.11 92.21 173.29 117.88 185.53 124.27 149.31"></polygon>
            <polygon id="Path" fill="#F4C9B2" points="102.51 108.91 81.66 129.76 71.75 178.11 120.1 139.93 139.38 103.05 110.98 35.68 105.76 43.23"></polygon>
            <polygon id="Path" fill="#95637C" points="91.56 260.2 47.65 233.1 47.91 221.11 59.89 216.03 109.41 220.59 109.67 239.48"></polygon>
            <polygon id="Path" fill="#734D60" points="55.99 229.58 61.2 227.63 62.89 232.97 57.29 234.66"></polygon>
            <polygon id="Path" fill="#734D60" points="66.54 234.79 71.62 232.84 73.32 238.31 67.84 239.88"></polygon>
            <polygon id="Path" fill="#B2879C" points="158.28 174.07 121.53 202.61 109.41 220.59 91.56 260.2 152.42 238.57"></polygon>
            <polygon id="Path" fill="#FCE3D4" points="126.09 226.58 109.41 220.59 110.59 191.01 125.57 199.48"></polygon>
            <polygon id="Path" fill="#F4C9B2" points="45.43 197.78 30.44 222.41 47.65 233.1 59.89 216.03"></polygon>
            <path d="M30.44,222.41 L56.12,251.21 L67.71,245.48 L66.15,273 L96.77,274.18 L91.56,260.23 L67.71,245.51 L30.44,222.41 Z M64.85,149.18 L58.59,173.18 L71.75,178.18 L69.54,214.01 L84.13,210.88 L92.21,173.36 L117.88,185.61 L124.27,149.38 L120.1,140 L92.21,173.36 L71.75,178.18 L64.85,149.18 Z M139,308.55 L109.68,308.29 L138.87,294.09 L139,308.55 Z" id="Shape" fill-opacity="0.15" fill="#2B2B2B"></path>
            <polygon id="Path" fill="#545657" points="67.58 185.01 71.49 181.24 75.27 185.41 71.1 189.18"></polygon>
            <polygon id="Path" fill="#C1907D" points="101.33 137.32 81.92 137.84 71.1 131.72 62.37 138.49 71.75 178.11"></polygon>
            <polygon id="Path" fill="#46382D" points="107.33 51.57 119.06 62.65 119.19 82.85 129.35 84.8 147.6 67.47 150.46 47.14 134.69 36.59 110.85 40.63"></polygon>
            <polygon id="Path" fill="#5E5044" points="90.39 18.21 97.82 32.42 110.85 40.63 150.46 47.14 131.18 10.53 102.51 11.05"></polygon>
            <polygon id="Path" fill="#5E5044" points="31.1 14.96 23.15 42.84 45.56 35.42 49.99 19.52"></polygon>
            <polygon id="Path" fill="#FCE3D4" points="27.58 115.56 23.15 42.84 41.65 20.17 90.39 18.21 110.85 40.63 108.63 113.34 81.92 137.84 49.99 138.75"></polygon>
            <polygon id="Path" fill="#F4C9B2" points="31.23 67.73 41.78 73.47 50.77 90.28 55.99 80.37 53.77 73.73 51.16 68.52 37.87 63.82"></polygon>
            <polygon id="Path" fill="#F4C9B2" points="63.54 68.38 60.29 73.73 58.33 82.59 61.98 93.01 72.53 73.47 87 65.78 77.36 62.91"></polygon>
            <polygon id="Path" fill="#46382D" points="36.96 62.65 49.73 65.13 51.16 68.52 37.61 65.65 31.23 67.73"></polygon>
            <polygon id="Path" fill="#46382D" points="65.24 64.86 63.54 68.38 78.4 64.08 87 65.78 78.66 60.83"></polygon>
            <polygon id="Path" fill="#C1907D" points="56.25 99.79 49.99 93.27 56.12 90.41 63.28 93.01"></polygon>
            <polygon id="Path" fill="#FFEFE7" points="53.77 73.73 49.99 93.27 63.28 93.01 60.29 73.73"></polygon>
            <polygon id="Path" fill="#C1907D" points="45.95 109.56 70.19 108 75.27 105.13 76.84 107.22 71.23 110.34 46.47 111.78"></polygon>
            <polygon id="Path" fill="#C1907D" points="125.05 94.19 139.38 103.05 143.81 94.58 137.3 89.63"></polygon>
            <polygon id="Path" fill="#FCE3D4" points="127.66 65.52 125.05 94.19 143.81 94.58 147.6 67.47"></polygon>
            <polygon id="Path" fill="#C1907D" points="133 72.03 132.09 83.63 140.69 72.55"></polygon>
            <polygon id="Path" fill="#74665B" points="57.03 0.49 84 9.35 93.65 21.99 38.52 24.08 31.1 14.96"></polygon>
            <polygon id="Path" fill="#74665B" points="131.18 10.53 93.65 21.99 84 9.35 95.34 1.67"></polygon>
            <polygon id="Path" fill="#545657" points="66.15 209.9 70.06 205.99 73.84 210.29 69.54 213.94"></polygon>
            <polygon id="Path" fill="#545657" points="63.28 259.55 67.19 255.64 70.97 259.94 66.67 263.59"></polygon>
            <polygon id="Path" fill="#5E5044" points="95.34 1.67 57.03 0.49 93.65 21.99"></polygon>
            <path d="M42.3,70.86 C43.187684,70.8217186 44.0523371,71.1485363 44.6927675,71.7644074 C45.3331979,72.3802786 45.6935589,73.2314981 45.69,74.12 C45.7575575,75.3514192 45.1390053,76.5193384 44.0824041,77.1553818 C43.0258029,77.7914252 41.7041971,77.7914252 40.6475959,77.1553818 C39.5909947,76.5193384 38.9724425,75.3514192 39.04,74.12 C39.0319087,73.2529391 39.3727731,72.4190358 39.9859045,71.8059045 C40.5990358,71.1927731 41.4329391,70.8519087 42.3,70.86 L42.3,70.86 Z" id="Path" fill="#2B2B2B"></path>
            <path d="M72.79,70.6 C74.6622453,70.6 76.18,72.1177547 76.18,73.99 C76.18,75.8622453 74.6622453,77.38 72.79,77.38 C70.9177547,77.38 69.4,75.8622453 69.4,73.99 C69.4,72.1177547 70.9177547,70.6 72.79,70.6 Z" id="Path" fill="#2B2B2B"></path>
            <path d="M204.54,312.72 L210.8,322.62 L217.31,312.98 L210.54,302.29 L204.54,312.72 Z M181.22,151.39 L181.22,156.74 L201.28,159.08 L201.28,337.48 L204.02,337.74 L210.8,328.1 L218.22,339.7 L221.61,340.09 L215.23,159 L214.97,153.79 L214.97,152.49 L213.66,152.36 L181.08,148.45 L181.22,151.45 L181.22,151.39 Z M184.22,154 L184.22,151.78 L212.1,155 L212.1,157.35 L184.22,154 Z M218.36,334.35 L217.71,317.67 L212.63,325.36 L218.36,334.35 Z M217.45,307.51 L216.8,291.09 L212.24,299.3 L217.45,307.51 Z M216.45,280.4 L216,266.59 L212.09,273.5 L216.45,280.4 Z M215.54,255.25 L215.15,241.18 L211.5,248.09 L215.54,255.25 Z M214.63,229.19 L214.23,215.51 L210.98,222.28 L214.63,229.19 Z M213.71,202.48 L213.32,190.36 L210.72,196.36 L213.71,202.48 Z M212.8,176.28 L212.41,165.73 L210.33,170.73 L212.8,176.28 Z M211.5,160.28 L205.24,159.63 L208.63,167.06 L211.5,160.28 Z M204.33,164.72 L204.33,176.96 L207.07,170.71 L204.33,164.72 Z M204.33,190.52 L204.33,203.42 L207.33,196.51 L204.33,190.52 Z M204.33,216.45 L204.33,229.35 L207.59,222.44 L204.33,216.45 Z M204.33,241.73 L204.33,255.54 L208.11,248.24 L204.33,241.73 Z M204.33,266.88 L204.33,281.48 L208.63,273.66 L204.33,266.88 Z M204.33,292.42 L204.33,307.15 L208.76,299.46 L204.33,292.42 Z M204.33,317.96 L204.33,332.56 L209.15,325.39 L204.33,317.96 Z M208.76,174.36 L204.46,184.13 L208.89,192.99 L212.89,183.87 L208.76,174.36 Z M209.15,199.9 L204.46,210.46 L209.15,219.06 L213.84,209.28 L209.15,199.9 Z M209.41,225.7 L204.54,236 L209.75,245.13 L214.75,235.49 L209.41,225.7 Z M209.93,251.37 L204.59,261.54 L210.33,270.66 L215.54,261.15 L209.93,251.37 Z M210.46,276.52 L204.59,287.21 L210.46,296.46 L216.46,285.91 L210.46,276.52 Z" id="Shape" fill="#ABABAB"></path>
        </g>
    </g>
</svg>